<svg width="354" height="356" viewBox="0 0 354 356" fill="none" xmlns="http://www.w3.org/2000/svg">
<path d="M729.994 540.604C729.994 543.266 729.914 545.909 729.756 548.531L730.255 548.562C729.934 553.879 729.292 559.115 728.347 564.271L727.855 564.181C726.904 569.37 725.644 574.476 724.093 579.499L724.57 579.646C723.015 584.68 721.168 589.63 719.047 594.494L718.588 594.294C716.5 599.082 714.143 603.788 711.536 608.411L711.972 608.656C709.404 613.209 706.593 617.68 703.556 622.068L703.144 621.784C700.182 626.064 697.002 630.266 693.62 634.388L694.006 634.705C690.697 638.739 687.194 642.697 683.512 646.576L683.149 646.232C679.564 650.01 675.809 653.714 671.895 657.344L672.234 657.71C668.406 661.261 664.426 664.741 660.307 668.148L659.989 667.763C655.969 671.089 651.816 674.346 647.541 677.534L647.839 677.934C643.646 681.061 639.335 684.121 634.917 687.113L634.637 686.699C630.307 689.632 625.874 692.5 621.348 695.302L621.611 695.727C617.153 698.487 612.605 701.183 607.977 703.814L607.73 703.379C603.171 705.97 598.534 708.499 593.828 710.964L594.06 711.407C589.404 713.845 584.681 716.221 579.898 718.535L579.68 718.085C574.948 720.374 570.158 722.601 565.318 724.767L565.522 725.223C560.714 727.375 555.857 729.464 550.96 731.493L550.768 731.031C545.901 733.046 540.993 735 536.053 736.893L536.232 737.36C531.304 739.248 526.344 741.074 521.36 742.839L521.193 742.368C516.217 744.129 511.216 745.829 506.199 747.467L506.354 747.942C501.325 749.584 496.279 751.162 491.225 752.678L491.082 752.199C486.011 753.72 480.932 755.176 475.853 756.569L475.985 757.051C470.869 758.453 465.753 759.79 460.645 761.061L460.524 760.576C455.374 761.858 450.231 763.072 445.105 764.219L445.215 764.707C440.024 765.869 434.851 766.961 429.703 767.983L429.605 767.493C424.384 768.529 419.19 769.494 414.031 770.385L414.116 770.878C408.858 771.787 403.637 772.62 398.462 773.378L398.39 772.883C393.104 773.656 387.867 774.35 382.688 774.964L382.747 775.46C377.425 776.091 372.164 776.637 366.977 777.097L366.933 776.599C361.585 777.073 356.314 777.457 351.134 777.748L351.162 778.247C345.778 778.55 340.491 778.753 335.315 778.856L335.306 778.356C332.662 778.409 330.047 778.435 327.463 778.435C324.812 778.435 322.187 778.378 319.587 778.265L319.565 778.765C314.256 778.535 309.052 778.072 303.953 777.388L304.02 776.893C298.787 776.191 293.665 775.255 288.653 774.095L288.54 774.582C283.393 773.391 278.361 771.965 273.444 770.317L273.603 769.842C268.627 768.174 263.77 766.276 259.029 764.162L258.825 764.618C254.037 762.483 249.369 760.127 244.819 757.562L245.064 757.127C240.525 754.568 236.103 751.802 231.798 748.84L231.514 749.252C227.22 746.297 223.041 743.148 218.98 739.818L219.297 739.432C215.285 736.143 211.387 732.677 207.601 729.045L207.255 729.406C203.506 725.809 199.867 722.05 196.339 718.141L196.71 717.806C193.237 713.959 189.87 709.966 186.609 705.837L186.217 706.147C182.997 702.071 179.88 697.863 176.866 693.535L177.276 693.249C174.314 688.996 171.451 684.626 168.686 680.149L168.261 680.412C165.534 675.995 162.902 671.474 160.366 666.86L160.804 666.619C158.306 662.073 155.899 657.436 153.586 652.717L153.137 652.937C150.848 648.268 148.649 643.519 146.539 638.699L146.997 638.499C144.914 633.737 142.917 628.906 141.008 624.014L140.543 624.196C138.649 619.344 136.841 614.432 135.118 609.468L135.59 609.304C133.883 604.385 132.259 599.415 130.719 594.403L130.241 594.55C128.708 589.562 127.257 584.533 125.889 579.47L126.372 579.339C125.01 574.303 123.73 569.233 122.531 564.139L122.044 564.253C120.847 559.165 119.73 554.052 118.693 548.922L119.183 548.823C118.147 543.699 117.192 538.559 116.316 533.41L115.823 533.494C114.945 528.33 114.146 523.157 113.427 517.984L113.922 517.915C113.201 512.726 112.56 507.536 111.999 502.353L111.502 502.407C110.936 497.187 110.452 491.975 110.047 486.778L110.545 486.739C110.138 481.503 109.812 476.283 109.567 471.087L109.067 471.111C108.819 465.854 108.654 460.621 108.571 455.422L109.071 455.414C109.03 452.799 109.009 450.193 109.009 447.597C109.009 444.956 109.068 442.305 109.185 439.645L108.685 439.623C108.917 434.34 109.376 429.023 110.052 423.682L110.548 423.744C111.21 418.515 112.08 413.261 113.151 407.991L112.661 407.891C113.712 402.714 114.956 397.522 116.383 392.323L116.865 392.456C118.26 387.371 119.832 382.279 121.571 377.188L121.098 377.026C122.806 372.025 124.676 367.025 126.7 362.033L127.163 362.221C129.146 357.329 131.278 352.445 133.549 347.575L133.096 347.364C135.333 342.569 137.706 337.789 140.208 333.029L140.65 333.262C143.11 328.582 145.696 323.923 148.399 319.289L147.967 319.037C150.638 314.46 153.423 309.91 156.318 305.39L156.739 305.66C159.596 301.2 162.559 296.77 165.622 292.377L165.212 292.091C168.248 287.737 171.383 283.418 174.609 279.142L175.008 279.443C178.205 275.206 181.492 271.01 184.864 266.86L184.476 266.545C187.83 262.417 191.268 258.335 194.783 254.304L195.16 254.632C198.656 250.625 202.229 246.667 205.873 242.766L205.508 242.424C209.145 238.53 212.854 234.692 216.628 230.914L216.982 231.267C220.747 227.498 224.579 223.789 228.469 220.146L228.128 219.781C232.024 216.133 235.981 212.55 239.992 209.038L240.322 209.415C244.337 205.899 248.407 202.455 252.526 199.087L252.21 198.7C256.349 195.315 260.538 192.008 264.771 188.783L265.074 189.181C269.326 185.941 273.622 182.785 277.956 179.717L277.667 179.309C282.039 176.215 286.45 173.211 290.893 170.302L291.167 170.721C295.647 167.789 300.161 164.954 304.702 162.222L304.444 161.794C309.041 159.028 313.667 156.368 318.314 153.819L318.555 154.257C323.257 151.678 327.982 149.213 332.723 146.868L332.501 146.42C337.319 144.037 342.154 141.778 346.998 139.648L347.2 140.106C352.118 137.944 357.047 135.917 361.978 134.031L361.799 133.564C366.83 131.64 371.863 129.862 376.892 128.239L377.046 128.714C382.167 127.061 387.282 125.567 392.384 124.241L392.258 123.757C397.478 122.4 402.685 121.217 407.869 120.217L407.964 120.708C413.249 119.689 418.511 118.859 423.74 118.229L423.68 117.732C429.033 117.087 434.352 116.649 439.628 116.427L439.649 116.927C442.31 116.815 444.96 116.759 447.598 116.759C450.273 116.759 452.944 116.847 455.608 117.02L455.641 116.521C460.978 116.869 466.292 117.559 471.577 118.573L471.482 119.064C476.69 120.063 481.87 121.379 487.017 122.993L487.166 122.516C492.229 124.103 497.258 125.978 502.251 128.124L502.053 128.584C506.898 130.666 511.709 133.006 516.481 135.586L516.718 135.146C521.365 137.659 525.973 140.399 530.54 143.353L530.269 143.773C534.695 146.636 539.083 149.701 543.429 152.955L543.728 152.555C547.962 155.725 552.155 159.073 556.303 162.588L555.98 162.969C560.013 166.386 564.004 169.961 567.951 173.684L568.294 173.32C572.151 176.958 575.966 180.736 579.734 184.644L579.374 184.991C583.049 188.802 586.68 192.736 590.264 196.786L590.639 196.454C594.157 200.428 597.63 204.511 601.055 208.695L600.668 209.012C604.031 213.119 607.348 217.325 610.617 221.619L611.015 221.316C614.24 225.551 617.417 229.873 620.545 234.273L620.138 234.563C623.224 238.903 626.262 243.32 629.25 247.805L629.666 247.528C632.625 251.971 635.535 256.481 638.394 261.05L637.97 261.316C640.803 265.843 643.584 270.428 646.313 275.065L646.744 274.811C649.458 279.421 652.119 284.082 654.726 288.786L654.289 289.028C656.881 293.705 659.42 298.424 661.902 303.179L662.346 302.948C664.826 307.698 667.251 312.484 669.618 317.299L669.17 317.519C671.536 322.331 673.844 327.171 676.093 332.033L676.547 331.823C678.802 336.698 680.997 341.595 683.13 346.506L682.671 346.705C684.811 351.632 686.889 356.573 688.902 361.522L689.365 361.333C691.391 366.316 693.353 371.306 695.246 376.295L694.779 376.472C696.69 381.51 698.533 386.547 700.305 391.576L700.776 391.41C702.571 396.504 704.292 401.59 705.938 406.661L705.463 406.815C707.131 411.955 708.722 417.078 710.234 422.177L710.713 422.035C712.252 427.227 713.708 432.394 715.08 437.526L714.596 437.655C715.995 442.891 717.305 448.09 718.523 453.245L719.009 453.13C720.259 458.418 721.413 463.659 722.467 468.842L721.977 468.942C723.061 474.273 724.041 479.543 724.912 484.742L725.405 484.66C726.308 490.045 727.095 495.355 727.763 500.576L727.267 500.639C727.961 506.067 728.526 511.399 728.958 516.622L729.456 516.58C729.91 522.062 730.217 527.424 730.373 532.65L729.874 532.665C729.954 535.348 729.994 537.995 729.994 540.604Z" stroke="#F06500" stroke-dasharray="16 16"/>
<path d="M759.058 548.763C759.058 551.493 758.981 554.205 758.827 556.898L759.326 556.926C759.015 562.379 758.393 567.754 757.477 573.05L756.984 572.965C756.061 578.298 754.838 583.551 753.33 588.724L753.81 588.864C752.297 594.054 750.499 599.162 748.431 604.188L747.968 603.998C745.925 608.963 743.617 613.848 741.06 618.652L741.502 618.887C738.977 623.629 736.211 628.292 733.217 632.874L732.798 632.6C729.873 637.076 726.731 641.475 723.383 645.796L723.779 646.103C720.5 650.336 717.026 654.494 713.369 658.576L712.996 658.243C709.431 662.223 705.691 666.131 701.788 669.967L702.139 670.323C698.318 674.079 694.341 677.764 690.221 681.378L689.891 681.003C685.869 684.531 681.708 687.993 677.42 691.386L677.731 691.778C673.527 695.104 669.202 698.364 664.764 701.558L664.472 701.152C660.123 704.282 655.666 707.348 651.11 710.349L651.385 710.767C646.9 713.722 642.319 716.614 637.651 719.443L637.392 719.016C632.798 721.8 628.119 724.523 623.365 727.184L623.609 727.621C618.91 730.25 614.137 732.82 609.298 735.329L609.068 734.885C604.286 737.364 599.44 739.783 594.536 742.142L594.753 742.593C589.889 744.933 584.969 747.213 580.001 749.434L579.797 748.978C574.869 751.181 569.893 753.325 564.877 755.41L565.069 755.872C560.077 757.947 555.046 759.962 549.982 761.919L549.802 761.452C544.759 763.401 539.684 765.29 534.584 767.12L534.753 767.59C529.654 769.42 524.53 771.19 519.388 772.9L519.23 772.425C514.088 774.136 508.927 775.786 503.756 777.376L503.903 777.854C498.714 779.449 493.514 780.983 488.311 782.456L488.175 781.975C482.951 783.453 477.723 784.87 472.5 786.224L472.626 786.708C467.363 788.072 462.104 789.372 456.857 790.608L456.743 790.122C451.444 791.37 446.157 792.553 440.89 793.67L440.994 794.159C435.654 795.292 430.335 796.356 425.043 797.352L424.951 796.861C419.583 797.871 414.245 798.811 408.944 799.68L409.025 800.174C403.623 801.059 398.26 801.871 392.945 802.608L392.876 802.113C387.449 802.865 382.073 803.54 376.755 804.137L376.811 804.633C371.351 805.246 365.954 805.776 360.63 806.222L360.589 805.724C355.106 806.184 349.7 806.555 344.384 806.837L344.41 807.336C338.895 807.628 333.475 807.825 328.163 807.924L328.153 807.424C325.446 807.475 322.766 807.5 320.116 807.5C317.422 807.5 314.752 807.446 312.106 807.34L312.086 807.839C306.695 807.622 301.402 807.186 296.209 806.541L296.27 806.044C290.945 805.382 285.724 804.499 280.607 803.405L280.502 803.893C275.257 802.771 270.12 801.428 265.091 799.873L265.239 799.395C260.145 797.82 255.162 796.027 250.289 794.027L250.099 794.489C245.164 792.464 240.342 790.227 235.632 787.789L235.862 787.345C231.153 784.908 226.556 782.27 222.071 779.441L221.804 779.864C217.319 777.035 212.945 774.017 208.683 770.82L208.983 770.42C204.758 767.252 200.643 763.908 196.637 760.399L196.307 760.775C192.33 757.292 188.46 753.646 184.696 749.849L185.051 749.497C181.339 745.752 177.731 741.859 174.226 737.829L173.849 738.157C170.383 734.171 167.017 730.052 163.752 725.807L164.148 725.502C160.937 721.328 157.823 717.033 154.805 712.627L154.393 712.909C151.411 708.555 148.523 704.093 145.729 699.531L146.155 699.27C143.402 694.775 140.74 690.183 138.168 685.502L137.729 685.742C135.186 681.113 132.73 676.397 130.363 671.604L130.811 671.382C128.474 666.649 126.222 661.84 124.055 656.962L123.599 657.165C121.452 652.331 119.388 647.43 117.408 642.47L117.873 642.285C115.913 637.375 114.034 632.406 112.237 627.387L111.767 627.556C109.981 622.569 108.276 617.532 106.65 612.452L107.126 612.3C105.512 607.256 103.977 602.171 102.52 597.05L102.039 597.187C100.587 592.084 99.2125 586.947 97.9157 581.782L98.4006 581.66C97.1087 576.515 95.8937 571.343 94.7551 566.151L94.2667 566.258C93.1284 561.067 92.0665 555.856 91.0805 550.632L91.5719 550.539C90.5863 545.317 89.6768 540.082 88.8429 534.842L88.3491 534.92C87.5125 529.663 86.752 524.399 86.0671 519.137L86.5629 519.072C85.8758 513.793 85.2649 508.514 84.7298 503.244L84.2324 503.295C83.6936 497.988 83.2316 492.69 82.846 487.407L83.3447 487.371C82.9563 482.05 82.6456 476.746 82.4121 471.465L81.9126 471.487C81.6764 466.146 81.5191 460.83 81.4403 455.546L81.9402 455.538C81.9006 452.883 81.8809 450.236 81.8809 447.597C81.8809 444.889 81.938 442.172 82.0511 439.446L81.5515 439.425C81.7763 434.008 82.2216 428.558 82.8783 423.082L83.3748 423.142C84.0185 417.775 84.866 412.384 85.9087 406.976L85.4178 406.881C86.4431 401.564 87.6568 396.23 89.0508 390.889L89.5346 391.015C90.8997 385.784 92.438 380.546 94.1422 375.306L93.6667 375.151C95.3422 369.999 97.1776 364.846 99.1657 359.7L99.6321 359.88C101.582 354.831 103.679 349.789 105.917 344.757L105.46 344.554C107.665 339.598 110.005 334.654 112.475 329.727L112.922 329.951C115.351 325.105 117.906 320.276 120.58 315.47L120.144 315.227C122.785 310.479 125.543 305.754 128.411 301.056L128.838 301.317C131.668 296.681 134.606 292.073 137.646 287.497L137.23 287.22C140.241 282.687 143.352 278.185 146.558 273.72L146.964 274.012C150.137 269.592 153.403 265.209 156.756 260.866L156.36 260.561C159.691 256.247 163.108 251.974 166.605 247.746L166.991 248.065C170.462 243.869 174.013 239.718 177.638 235.617L177.263 235.286C180.877 231.197 184.565 227.158 188.321 223.173L188.685 223.516C192.428 219.545 196.239 215.628 200.113 211.77L199.76 211.416C203.634 207.558 207.571 203.759 211.565 200.023L211.907 200.388C215.899 196.655 219.949 192.985 224.052 189.383L223.722 189.007C227.836 185.395 232.003 181.851 236.218 178.38L236.536 178.766C240.76 175.288 245.033 171.883 249.349 168.556L249.043 168.16C253.384 164.814 257.768 161.547 262.191 158.363L262.483 158.769C266.934 155.565 271.424 152.447 275.947 149.418L275.669 149.003C280.234 145.946 284.833 142.981 289.461 140.113L289.725 140.538C294.393 137.644 299.09 134.849 303.811 132.158L303.564 131.723C308.344 128.998 313.148 126.379 317.97 123.872L318.201 124.316C323.08 121.779 327.978 119.356 332.889 117.054L332.676 116.601C337.665 114.262 342.667 112.046 347.676 109.96L347.868 110.421C352.951 108.304 358.04 106.321 363.13 104.477L362.96 104.007C368.147 102.128 373.335 100.394 378.516 98.811L378.662 99.2891C383.933 97.6789 389.197 96.2256 394.446 94.9361L394.327 94.4505C399.69 93.1331 405.039 91.9862 410.365 91.0172L410.454 91.5091C415.877 90.5223 421.277 89.7205 426.644 89.1112L426.587 88.6144C432.073 87.9916 437.526 87.5695 442.937 87.3564L442.957 87.856C445.684 87.7486 448.4 87.6943 451.104 87.6943C453.711 87.6943 456.313 87.7707 458.911 87.9216L458.94 87.4224C464.144 87.7248 469.327 88.3254 474.485 89.21L474.401 89.7029C479.497 90.5769 484.57 91.7294 489.616 93.1465L489.751 92.6652C494.73 94.0638 499.682 95.7193 504.602 97.6184L504.422 98.0849C509.223 99.9381 513.995 102.024 518.735 104.331L518.953 103.882C523.59 106.139 528.194 108.606 532.762 111.272L532.51 111.704C536.953 114.297 541.363 117.079 545.736 120.039L546.017 119.625C550.289 122.516 554.526 125.577 558.725 128.798L558.421 129.194C562.511 132.332 566.566 135.621 570.583 139.053L570.908 138.673C574.839 142.032 578.734 145.528 582.589 149.152L582.246 149.516C586.004 153.049 589.725 156.704 593.407 160.473L593.764 160.123C597.373 163.818 600.944 167.622 604.474 171.528L604.103 171.863C607.569 175.698 610.996 179.631 614.382 183.656L614.765 183.334C618.103 187.301 621.401 191.357 624.657 195.495L624.264 195.804C627.473 199.882 630.642 204.039 633.768 208.27L634.17 207.973C637.256 212.149 640.301 216.397 643.302 220.709L642.891 220.995C645.854 225.252 648.775 229.573 651.652 233.951L652.07 233.676C654.926 238.023 657.739 242.427 660.507 246.881L660.083 247.145C662.83 251.566 665.534 256.037 668.191 260.553L668.622 260.299C671.265 264.791 673.863 269.327 676.414 273.9L675.977 274.144C678.514 278.693 681.004 283.28 683.446 287.899L683.888 287.665C686.328 292.28 688.72 296.927 691.061 301.601L690.614 301.825C692.953 306.493 695.242 311.187 697.48 315.902L697.931 315.687C700.172 320.409 702.362 325.152 704.498 329.91L704.042 330.115C706.184 334.888 708.274 339.677 710.308 344.476L710.768 344.281C712.813 349.105 714.803 353.939 716.735 358.778L716.271 358.963C718.213 363.827 720.097 368.695 721.921 373.562L722.389 373.386C724.229 378.294 726.008 383.201 727.725 388.1L727.253 388.266C728.992 393.228 730.666 398.182 732.275 403.123L732.75 402.968C734.38 407.974 735.943 412.965 737.435 417.936L736.957 418.08C738.47 423.12 739.912 428.138 741.28 433.128L741.762 432.995C743.155 438.074 744.471 443.123 745.71 448.137L745.225 448.257C746.488 453.373 747.671 458.451 748.77 463.484L749.258 463.377C750.389 468.557 751.432 473.689 752.383 478.765L751.892 478.857C752.869 484.07 753.75 489.223 754.534 494.308L755.028 494.232C755.837 499.487 756.541 504.671 757.138 509.772L756.641 509.83C757.259 515.116 757.762 520.314 758.145 525.413L758.644 525.375C759.044 530.704 759.315 535.926 759.453 541.027L758.953 541.04C759.023 543.647 759.058 546.221 759.058 548.763Z" stroke="#F06500" stroke-dasharray="16 16"/>
<path d="M731.931 519.698C731.931 522.429 731.854 525.14 731.7 527.833L732.199 527.861C731.888 533.314 731.266 538.689 730.35 543.985L729.857 543.9C728.934 549.233 727.711 554.486 726.203 559.659L726.683 559.799C725.17 564.989 723.372 570.097 721.304 575.123L720.841 574.933C718.798 579.898 716.49 584.783 713.933 589.587L714.375 589.822C711.85 594.564 709.084 599.227 706.09 603.809L705.671 603.535C702.747 608.011 699.604 612.41 696.256 616.732L696.652 617.038C693.373 621.271 689.899 625.429 686.242 629.511L685.869 629.178C682.304 633.158 678.564 637.066 674.661 640.902L675.012 641.258C671.191 645.014 667.215 648.699 663.094 652.313L662.765 651.938C658.742 655.466 654.581 658.928 650.293 662.321L650.604 662.713C646.4 666.039 642.075 669.299 637.637 672.493L637.345 672.087C632.996 675.217 628.539 678.283 623.983 681.284L624.258 681.702C619.773 684.657 615.192 687.549 610.524 690.378L610.265 689.951C605.671 692.735 600.992 695.458 596.238 698.119L596.482 698.556C591.783 701.186 587.01 703.755 582.172 706.264L581.941 705.82C577.159 708.299 572.313 710.718 567.409 713.077L567.626 713.528C562.762 715.868 557.842 718.148 552.874 720.369L552.67 719.913C547.742 722.116 542.766 724.26 537.75 726.345L537.942 726.807C532.95 728.882 527.919 730.897 522.855 732.854L522.675 732.387C517.632 734.336 512.557 736.225 507.457 738.055L507.626 738.525C502.527 740.355 497.403 742.125 492.261 743.835L492.103 743.361C486.961 745.071 481.8 746.721 476.629 748.311L476.776 748.789C471.587 750.384 466.387 751.918 461.184 753.391L461.048 752.91C455.824 754.388 450.597 755.805 445.373 757.159L445.499 757.643C440.236 759.007 434.977 760.307 429.73 761.543L429.616 761.057C424.317 762.305 419.03 763.488 413.763 764.605L413.867 765.094C408.527 766.227 403.208 767.291 397.917 768.287L397.824 767.796C392.456 768.806 387.118 769.746 381.817 770.615L381.898 771.109C376.496 771.994 371.133 772.806 365.818 773.543L365.749 773.048C360.322 773.8 354.946 774.475 349.628 775.072L349.684 775.568C344.225 776.181 338.827 776.711 333.503 777.157L333.462 776.659C327.979 777.119 322.573 777.49 317.257 777.772L317.283 778.271C311.768 778.564 306.348 778.76 301.036 778.859L301.026 778.359C298.319 778.41 295.639 778.435 292.989 778.435C290.295 778.435 287.625 778.381 284.979 778.275L284.959 778.774C279.568 778.557 274.275 778.121 269.082 777.476L269.143 776.979C263.818 776.317 258.597 775.434 253.48 774.34L253.375 774.829C248.13 773.707 242.993 772.363 237.964 770.808L238.112 770.33C233.018 768.755 228.035 766.962 223.162 764.962L222.972 765.424C218.037 763.399 213.215 761.162 208.505 758.724L208.735 758.28C204.026 755.843 199.429 753.205 194.944 750.376L194.677 750.799C190.192 747.97 185.818 744.952 181.556 741.755L181.856 741.355C177.631 738.187 173.516 734.843 169.51 731.334L169.18 731.71C165.203 728.227 161.333 724.581 157.569 720.784L157.924 720.432C154.213 716.687 150.604 712.794 147.099 708.764L146.722 709.092C143.256 705.106 139.89 700.987 136.625 696.742L137.021 696.437C133.81 692.263 130.696 687.968 127.678 683.562L127.266 683.844C124.284 679.491 121.396 675.028 118.602 670.466L119.028 670.205C116.275 665.71 113.613 661.118 111.041 656.437L110.603 656.677C108.059 652.048 105.603 647.332 103.236 642.539L103.684 642.317C101.347 637.584 99.095 632.775 96.9285 627.897L96.4716 628.1C94.3246 623.266 92.2613 618.365 90.2814 613.405L90.7458 613.22C88.7858 608.31 86.9074 603.341 85.1103 598.322L84.6396 598.491C82.854 593.504 81.1486 588.467 79.5231 583.388L79.9993 583.235C78.3851 578.191 76.8498 573.106 75.3927 567.985L74.9118 568.122C73.4598 563.019 72.0856 557.882 70.7887 552.717L71.2737 552.595C69.9818 547.45 68.7667 542.278 67.6281 537.086L67.1397 537.193C66.0014 532.002 64.9395 526.791 63.9536 521.567L64.4449 521.474C63.4594 516.252 62.5498 511.017 61.7159 505.777L61.2221 505.855C60.3855 500.598 59.625 495.334 58.9401 490.072L59.4359 490.007C58.7488 484.728 58.1379 479.449 57.6029 474.179L57.1054 474.23C56.5666 468.923 56.1046 463.625 55.7191 458.342L56.2177 458.306C55.8294 452.985 55.5187 447.681 55.2851 442.4L54.7856 442.422C54.5494 437.082 54.3922 431.765 54.3133 426.481L54.8133 426.473C54.7737 423.818 54.7539 421.171 54.7539 418.532C54.7539 415.825 54.811 413.107 54.9241 410.381L54.4246 410.36C54.6493 404.943 55.0946 399.493 55.7514 394.017L56.2478 394.077C56.8916 388.71 57.739 383.319 58.7818 377.911L58.2908 377.816C59.3162 372.499 60.5299 367.165 61.9239 361.824L62.4077 361.95C63.7727 356.719 65.3111 351.481 67.0152 346.241L66.5397 346.086C68.2153 340.934 70.0507 335.781 72.0387 330.635L72.5051 330.815C74.4552 325.767 76.5524 320.724 78.7902 315.692L78.3333 315.489C80.5376 310.533 82.8779 305.589 85.3477 300.662L85.7947 300.887C88.2241 296.04 90.7791 291.211 93.4535 286.405L93.0166 286.162C95.6582 281.414 98.416 276.689 101.284 271.991L101.711 272.252C104.541 267.616 107.479 263.008 110.519 258.432L110.103 258.155C113.114 253.622 116.225 249.12 119.431 244.655L119.837 244.947C123.01 240.527 126.276 236.144 129.629 231.801L129.233 231.496C132.564 227.182 135.981 222.909 139.478 218.681L139.864 219C143.335 214.804 146.886 210.653 150.511 206.552L150.136 206.221C153.75 202.132 157.438 198.093 161.194 194.108L161.558 194.451C165.301 190.48 169.112 186.563 172.986 182.705L172.633 182.351C176.507 178.493 180.444 174.694 184.438 170.958L184.78 171.323C188.772 167.59 192.822 163.92 196.925 160.318L196.595 159.942C200.709 156.33 204.876 152.786 209.091 149.315L209.409 149.701C213.633 146.223 217.906 142.818 222.222 139.491L221.916 139.095C226.257 135.749 230.641 132.482 235.064 129.298L235.356 129.704C239.807 126.501 244.297 123.382 248.82 120.353L248.542 119.938C253.107 116.881 257.706 113.916 262.334 111.048L262.598 111.473C267.266 108.579 271.963 105.784 276.684 103.093L276.437 102.658C281.217 99.9335 286.021 97.3145 290.843 94.8071L291.074 95.2507C295.953 92.7138 300.851 90.2912 305.762 87.9887L305.549 87.536C310.538 85.1967 315.54 82.9811 320.549 80.8949L320.741 81.3565C325.824 79.2394 330.913 77.256 336.003 75.4123L335.833 74.9422C341.02 73.0631 346.208 71.3289 351.389 69.746L351.535 70.2242C356.806 68.6139 362.07 67.1606 367.32 65.8711L367.2 65.3856C372.563 64.0681 377.912 62.9212 383.238 61.9522L383.327 62.4442C388.75 61.4574 394.15 60.6556 399.517 60.0463L399.461 59.5495C404.946 58.9267 410.399 58.5046 415.81 58.2914L415.83 58.7911C418.557 58.6836 421.273 58.6294 423.977 58.6294C426.584 58.6294 429.186 58.7057 431.784 58.8567L431.813 58.3575C437.017 58.6599 442.2 59.2605 447.358 60.1451L447.274 60.6379C452.37 61.512 457.443 62.6644 462.489 64.0816L462.624 63.6002C467.603 64.9989 472.555 66.6543 477.475 68.5535L477.295 69.0199C482.096 70.8732 486.868 72.9594 491.608 75.2664L491.826 74.8169C496.463 77.0737 501.067 79.541 505.635 82.2072L505.383 82.6391C509.826 85.2319 514.236 88.0137 518.609 90.9738L518.89 90.5597C523.162 93.4512 527.399 96.5122 531.598 99.7328L531.294 100.13C535.384 103.267 539.439 106.556 543.456 109.988L543.781 109.608C547.712 112.967 551.607 116.463 555.462 120.087L555.119 120.451C558.877 123.984 562.598 127.639 566.28 131.408L566.637 131.058C570.246 134.753 573.817 138.557 577.347 142.463L576.976 142.798C580.442 146.633 583.869 150.566 587.255 154.591L587.638 154.269C590.976 158.236 594.274 162.292 597.53 166.43L597.137 166.739C600.346 170.817 603.515 174.974 606.641 179.205L607.043 178.908C610.129 183.084 613.174 187.332 616.175 191.644L615.764 191.93C618.727 196.187 621.648 200.508 624.525 204.886L624.943 204.611C627.799 208.958 630.612 213.362 633.38 217.816L632.956 218.08C635.703 222.501 638.407 226.972 641.064 231.488L641.495 231.234C644.138 235.726 646.736 240.262 649.287 244.835L648.85 245.079C651.387 249.628 653.877 254.215 656.319 258.834L656.761 258.6C659.201 263.215 661.593 267.862 663.934 272.536L663.487 272.76C665.826 277.428 668.115 282.122 670.353 286.837L670.804 286.622C673.045 291.344 675.235 296.087 677.371 300.845L676.915 301.05C679.057 305.824 681.147 310.612 683.181 315.411L683.641 315.216C685.687 320.04 687.676 324.874 689.608 329.713L689.144 329.898C691.086 334.762 692.97 339.63 694.794 344.497L695.262 344.321C697.102 349.229 698.881 354.136 700.598 359.035L700.126 359.201C701.865 364.163 703.539 369.117 705.148 374.058L705.624 373.903C707.253 378.909 708.816 383.9 710.309 388.871L709.83 389.015C711.343 394.055 712.785 399.073 714.153 404.063L714.635 403.93C716.028 409.009 717.344 414.058 718.583 419.072L718.098 419.192C719.361 424.308 720.544 429.386 721.643 434.419L722.131 434.312C723.262 439.492 724.305 444.624 725.256 449.7L724.765 449.792C725.742 455.005 726.624 460.158 727.407 465.243L727.901 465.167C728.71 470.423 729.414 475.606 730.011 480.707L729.514 480.765C730.132 486.051 730.635 491.249 731.018 496.348L731.517 496.31C731.917 501.639 732.188 506.861 732.326 511.962L731.826 511.975C731.896 514.582 731.931 517.157 731.931 519.698Z" stroke="#F06500" stroke-dasharray="16 16"/>
<path d="M704.804 490.633C704.804 493.364 704.727 496.075 704.573 498.768L705.072 498.796C704.761 504.249 704.139 509.624 703.223 514.92L702.73 514.835C701.807 520.168 700.584 525.422 699.076 530.594L699.556 530.734C698.043 535.924 696.245 541.033 694.177 546.059L693.714 545.868C691.671 550.833 689.363 555.718 686.806 560.522L687.248 560.757C684.723 565.499 681.957 570.162 678.963 574.744L678.544 574.47C675.62 578.946 672.477 583.345 669.13 587.667L669.525 587.973C666.246 592.206 662.772 596.364 659.115 600.446L658.742 600.113C655.177 604.093 651.437 608.001 647.534 611.837L647.885 612.193C644.064 615.949 640.088 619.634 635.967 623.249L635.638 622.873C631.615 626.401 627.455 629.863 623.167 633.256L623.477 633.648C619.273 636.974 614.948 640.234 610.51 643.428L610.218 643.022C605.869 646.152 601.412 649.218 596.856 652.22L597.131 652.637C592.646 655.592 588.065 658.484 583.397 661.313L583.138 660.886C578.544 663.67 573.865 666.393 569.111 669.054L569.355 669.491C564.656 672.121 559.883 674.69 555.045 677.199L554.814 676.755C550.033 679.234 545.186 681.653 540.282 684.012L540.499 684.463C535.635 686.803 530.715 689.083 525.747 691.304L525.543 690.848C520.615 693.051 515.639 695.195 510.623 697.28L510.815 697.742C505.823 699.817 500.792 701.833 495.728 703.789L495.548 703.323C490.505 705.271 485.43 707.16 480.33 708.99L480.499 709.461C475.4 711.29 470.276 713.06 465.134 714.77L464.976 714.296C459.834 716.006 454.673 717.656 449.502 719.246L449.649 719.724C444.46 721.319 439.26 722.853 434.057 724.326L433.921 723.845C428.697 725.323 423.47 726.74 418.246 728.094L418.372 728.578C413.109 729.942 407.85 731.242 402.603 732.478L402.489 731.992C397.19 733.24 391.903 734.423 386.636 735.54L386.74 736.029C381.4 737.162 376.081 738.226 370.79 739.222L370.697 738.731C365.329 739.742 359.991 740.682 354.69 741.55L354.771 742.044C349.369 742.929 344.006 743.741 338.691 744.478L338.622 743.983C333.195 744.735 327.819 745.41 322.501 746.007L322.557 746.504C317.098 747.116 311.701 747.646 306.376 748.092L306.335 747.594C300.852 748.054 295.446 748.425 290.13 748.707L290.157 749.206C284.641 749.499 279.221 749.695 273.909 749.794L273.899 749.294C271.192 749.345 268.512 749.37 265.862 749.37C263.168 749.37 260.498 749.316 257.852 749.21L257.832 749.709C252.441 749.492 247.148 749.056 241.955 748.411L242.016 747.914C236.691 747.252 231.47 746.369 226.353 745.275L226.248 745.764C221.003 744.642 215.866 743.298 210.837 741.743L210.985 741.265C205.891 739.69 200.908 737.897 196.035 735.897L195.845 736.359C190.91 734.334 186.088 732.097 181.378 729.659L181.608 729.215C176.899 726.778 172.302 724.14 167.817 721.311L167.55 721.734C163.065 718.905 158.691 715.887 154.429 712.69L154.729 712.29C150.505 709.122 146.389 705.778 142.383 702.269L142.053 702.645C138.076 699.162 134.206 695.516 130.442 691.719L130.797 691.367C127.086 687.622 123.477 683.73 119.972 679.699L119.595 680.027C116.129 676.042 112.763 671.922 109.498 667.677L109.894 667.372C106.683 663.198 103.569 658.904 100.551 654.497L100.139 654.779C97.1569 650.426 94.2692 645.963 91.475 641.401L91.9014 641.14C89.1482 636.645 86.4858 632.053 83.9138 627.372L83.4756 627.613C80.9318 622.983 78.4764 618.268 76.1089 613.474L76.5572 613.252C74.2198 608.519 71.968 603.71 69.8016 598.832L69.3446 599.035C67.1976 594.201 65.1344 589.301 63.1545 584.341L63.6188 584.155C61.6588 579.245 59.7804 574.277 57.9834 569.257L57.5126 569.426C55.727 564.439 54.0217 559.402 52.3961 554.323L52.8723 554.17C51.2582 549.126 49.7228 544.041 48.2658 538.92L47.7849 539.057C46.3329 533.954 44.9586 528.817 43.6618 523.652L44.1467 523.53C42.8548 518.385 41.6397 513.213 40.5012 508.021L40.0128 508.128C38.8745 502.937 37.8125 497.726 36.8266 492.502L37.318 492.409C36.3324 487.187 35.4229 481.952 34.589 476.712L34.0952 476.79C33.2586 471.533 32.4981 466.269 31.8132 461.007L32.309 460.942C31.6219 455.663 31.011 450.384 30.4759 445.114L29.9785 445.165C29.4396 439.858 28.9777 434.56 28.5921 429.278L29.0908 429.241C28.7024 423.92 28.3917 418.616 28.1582 413.335L27.6587 413.357C27.4225 408.017 27.2652 402.7 27.1864 397.416L27.6863 397.409C27.6467 394.753 27.627 392.106 27.627 389.467C27.627 386.76 27.6841 384.042 27.7972 381.316L27.2976 381.295C27.5224 375.878 27.9676 370.428 28.6244 364.952L29.1209 365.012C29.7646 359.645 30.6121 354.254 31.6548 348.846L31.1639 348.751C32.1892 343.434 33.4029 338.1 34.7969 332.759L35.2807 332.885C36.6458 327.655 38.1841 322.416 39.8883 317.176L39.4128 317.021C41.0883 311.869 42.9237 306.716 44.9118 301.57L45.3782 301.75C47.3282 296.702 49.4255 291.659 51.6632 286.628L51.2064 286.424C53.4107 281.468 55.7509 276.524 58.2207 271.597L58.6677 271.822C61.0971 266.975 63.6521 262.146 66.3265 257.34L65.8896 257.097C68.5312 252.349 71.2891 247.624 74.1572 242.926L74.5839 243.187C77.4143 238.551 80.3522 233.943 83.3921 229.367L82.9756 229.09C85.987 224.557 89.0983 220.055 92.3038 215.591L92.71 215.882C95.8833 211.462 99.1492 207.079 102.502 202.736L102.106 202.431C105.437 198.117 108.854 193.844 112.351 189.616L112.737 189.935C116.208 185.739 119.759 181.588 123.384 177.487L123.009 177.156C126.623 173.067 130.311 169.028 134.067 165.043L134.431 165.386C138.174 161.415 141.985 157.498 145.859 153.64L145.506 153.286C149.38 149.428 153.317 145.629 157.311 141.893L157.653 142.258C161.645 138.525 165.695 134.855 169.798 131.253L169.468 130.877C173.582 127.265 177.749 123.721 181.964 120.25L182.282 120.636C186.506 117.158 190.779 113.753 195.095 110.426L194.789 110.03C199.13 106.684 203.514 103.417 207.937 100.233L208.229 100.639C212.68 97.4356 217.17 94.317 221.693 91.2885L221.415 90.873C225.98 87.8164 230.579 84.8512 235.208 81.9827L235.471 82.4076C240.139 79.5142 244.837 76.7192 249.557 74.0279L249.31 73.5935C254.09 70.8685 258.894 68.2496 263.716 65.7421L263.947 66.1858C268.826 63.6488 273.724 61.2263 278.635 58.9237L278.423 58.471C283.411 56.1318 288.413 53.9162 293.422 51.83L293.614 52.2915C298.697 50.1745 303.786 48.1911 308.876 46.3474L308.706 45.8773C313.893 43.9982 319.081 42.264 324.262 40.6811L324.409 41.1593C329.679 39.549 334.943 38.0957 340.193 36.8062L340.073 36.3206C345.436 35.0032 350.785 33.8563 356.111 32.8873L356.2 33.3792C361.624 32.3925 367.023 31.5906 372.39 30.9813L372.334 30.4845C377.82 29.8617 383.272 29.4397 388.683 29.2265L388.703 29.7261C391.43 29.6187 394.146 29.5645 396.85 29.5645C399.457 29.5645 402.059 29.6408 404.657 29.7917L404.686 29.2926C409.89 29.5949 415.073 30.1955 420.231 31.0802L420.147 31.573C425.243 32.447 430.316 33.5995 435.362 35.0166L435.497 34.5353C440.476 35.9339 445.428 37.5894 450.348 39.4885L450.168 39.955C454.969 41.8082 459.741 43.8944 464.481 46.2015L464.7 45.7519C469.336 48.0088 473.94 50.4761 478.508 53.1423L478.256 53.5741C482.699 56.167 487.109 58.9487 491.482 61.9089L491.763 61.4948C496.035 64.3862 500.272 67.4472 504.471 70.6678L504.167 71.0646C508.257 74.2017 512.312 77.4909 516.329 80.9231L516.654 80.543C520.585 83.9025 524.48 87.3984 528.335 91.0222L527.992 91.3865C531.75 94.9193 535.471 98.574 539.153 102.343L539.51 101.993C543.119 105.688 546.69 109.492 550.22 113.398L549.849 113.733C553.315 117.568 556.742 121.501 560.128 125.526L560.511 125.204C563.849 129.171 567.147 133.227 570.403 137.365L570.01 137.674C573.22 141.752 576.388 145.909 579.514 150.14L579.916 149.843C583.002 154.019 586.047 158.267 589.048 162.579L588.638 162.865C591.6 167.122 594.521 171.443 597.398 175.821L597.816 175.546C600.672 179.894 603.485 184.297 606.254 188.751L605.829 189.015C608.576 193.436 611.28 197.908 613.937 202.423L614.368 202.169C617.011 206.661 619.609 211.197 622.16 215.77L621.723 216.014C624.26 220.563 626.75 225.15 629.192 229.769L629.634 229.535C632.074 234.15 634.466 238.798 636.807 243.471L636.36 243.695C638.699 248.363 640.988 253.057 643.226 257.772L643.677 257.558C645.918 262.279 648.108 267.022 650.244 271.78L649.788 271.985C651.931 276.759 654.02 281.547 656.054 286.346L656.514 286.151C658.56 290.975 660.549 295.809 662.481 300.648L662.017 300.833C663.959 305.697 665.843 310.565 667.667 315.432L668.135 315.256C669.975 320.164 671.754 325.071 673.471 329.97L672.999 330.136C674.738 335.098 676.412 340.052 678.021 344.993L678.497 344.838C680.127 349.844 681.689 354.836 683.182 359.807L682.703 359.95C684.216 364.99 685.658 370.008 687.026 374.998L687.508 374.865C688.901 379.944 690.218 384.993 691.456 390.007L690.971 390.127C692.234 395.243 693.417 400.321 694.516 405.354L695.004 405.247C696.135 410.427 697.178 415.559 698.129 420.635L697.638 420.727C698.615 425.94 699.497 431.093 700.28 436.179L700.774 436.102C701.583 441.358 702.287 446.541 702.884 451.642L702.387 451.7C703.005 456.986 703.508 462.184 703.891 467.283L704.39 467.245C704.79 472.574 705.061 477.796 705.199 482.897L704.699 482.91C704.769 485.517 704.804 488.092 704.804 490.633Z" stroke="#F06500" stroke-dasharray="16 16"/>
<path d="M677.677 461.569C677.677 464.299 677.6 467.011 677.446 469.703L677.945 469.732C677.634 475.184 677.012 480.559 676.096 485.856L675.603 485.771C674.68 491.104 673.457 496.357 671.949 501.53L672.429 501.67C670.916 506.86 669.118 511.968 667.05 516.994L666.587 516.804C664.544 521.769 662.236 526.654 659.679 531.458L660.121 531.693C657.596 536.435 654.83 541.097 651.836 545.679L651.417 545.406C648.493 549.881 645.35 554.281 642.003 558.602L642.398 558.908C639.119 563.141 635.645 567.3 631.988 571.382L631.615 571.048C628.05 575.028 624.31 578.937 620.407 582.772L620.758 583.129C616.937 586.884 612.961 590.57 608.84 594.184L608.511 593.808C604.488 597.337 600.328 600.798 596.04 604.191L596.35 604.583C592.146 607.909 587.821 611.17 583.383 614.364L583.091 613.958C578.742 617.087 574.285 620.154 569.729 623.155L570.004 623.573C565.519 626.528 560.938 629.42 556.27 632.249L556.011 631.821C551.417 634.606 546.738 637.329 541.984 639.99L542.228 640.426C537.529 643.056 532.757 645.626 527.918 648.134L527.688 647.69C522.906 650.169 518.059 652.589 513.155 654.948L513.372 655.398C508.508 657.738 503.588 660.019 498.62 662.24L498.416 661.784C493.488 663.987 488.512 666.131 483.496 668.216L483.688 668.678C478.696 670.752 473.665 672.768 468.601 674.724L468.421 674.258C463.378 676.206 458.303 678.096 453.203 679.925L453.372 680.396C448.273 682.226 443.149 683.996 438.007 685.706L437.849 685.231C432.707 686.942 427.546 688.592 422.375 690.181L422.522 690.659C417.333 692.255 412.133 693.789 406.93 695.261L406.794 694.78C401.57 696.259 396.343 697.675 391.119 699.029L391.245 699.513C385.982 700.877 380.723 702.178 375.477 703.414L375.362 702.927C370.063 704.176 364.776 705.359 359.509 706.476L359.613 706.965C354.273 708.097 348.954 709.162 343.663 710.158L343.57 709.667C338.202 710.677 332.864 711.617 327.563 712.486L327.644 712.979C322.242 713.865 316.879 714.676 311.564 715.413L311.495 714.918C306.068 715.671 300.692 716.346 295.374 716.942L295.43 717.439C289.971 718.052 284.574 718.581 279.249 719.028L279.208 718.53C273.725 718.989 268.32 719.361 263.003 719.642L263.03 720.142C257.514 720.434 252.094 720.63 246.782 720.73L246.772 720.23C244.065 720.28 241.385 720.306 238.735 720.306C236.041 720.306 233.371 720.252 230.725 720.145L230.705 720.645C225.314 720.428 220.021 719.992 214.828 719.346L214.889 718.85C209.564 718.188 204.343 717.305 199.226 716.21L199.121 716.699C193.876 715.577 188.74 714.233 183.711 712.678L183.858 712.201C178.764 710.625 173.781 708.832 168.908 706.832L168.718 707.295C163.783 705.27 158.961 703.033 154.251 700.595L154.481 700.151C149.772 697.714 145.175 695.076 140.69 692.247L140.423 692.67C135.938 689.841 131.564 686.823 127.302 683.626L127.602 683.226C123.378 680.058 119.262 676.714 115.256 673.204L114.926 673.581C110.949 670.097 107.079 666.452 103.315 662.654L103.67 662.302C99.9586 658.558 96.3505 654.665 92.8451 650.634L92.4678 650.963C89.0018 646.977 85.6364 642.857 82.3711 638.613L82.7674 638.308C79.5564 634.134 76.4422 629.839 73.4242 625.432L73.0117 625.715C70.03 621.361 67.1423 616.899 64.348 612.337L64.7744 612.076C62.0213 607.58 59.3589 602.988 56.7868 598.307L56.3486 598.548C53.8048 593.919 51.3494 589.203 48.9819 584.409L49.4302 584.188C47.0928 579.455 44.8411 574.646 42.6746 569.768L42.2177 569.971C40.0707 565.137 38.0074 560.236 36.0275 555.276L36.4919 555.091C34.5318 550.181 32.6535 545.212 30.8564 540.193L30.3857 540.362C28.6001 535.374 26.8947 530.338 25.2692 525.258L25.7454 525.106C24.1312 520.062 22.5958 514.976 21.1388 509.856L20.6579 509.993C19.2059 504.89 17.8317 499.752 16.5348 494.588L17.0198 494.466C15.7279 489.321 14.5128 484.149 13.3742 478.956L12.8858 479.063C11.7475 473.872 10.6856 468.661 9.69968 463.438L10.191 463.345C9.20547 458.123 8.29593 452.888 7.46201 447.647L6.96822 447.726C6.13164 442.468 5.3711 437.205 4.68622 431.942L5.18204 431.878C4.49492 426.598 3.88402 421.32 3.34895 416.05L2.8515 416.101C2.31269 410.794 1.85071 405.495 1.46516 400.213L1.96383 400.177C1.57548 394.856 1.26474 389.551 1.03121 384.27L0.531702 384.293C0.295542 378.952 0.138262 373.636 0.0594414 368.352L0.559386 368.344C0.519777 365.689 0.5 363.041 0.5 360.403C0.5 357.695 0.557124 354.978 0.670234 352.252L0.170664 352.231C0.395429 346.814 0.840695 341.363 1.49748 335.888L1.99392 335.948C2.63765 330.581 3.48511 325.19 4.52788 319.782L4.03692 319.687C5.06227 314.369 6.27598 309.036 7.66998 303.694L8.15378 303.821C9.51881 298.59 11.0572 293.351 12.7613 288.111L12.2858 287.957C13.9614 282.805 15.7967 277.652 17.7848 272.505L18.2512 272.685C20.2013 267.637 22.2985 262.594 24.5363 257.563L24.0794 257.36C26.2837 252.404 28.624 247.46 31.0938 242.533L31.5407 242.757C33.9702 237.911 36.5252 233.082 39.1996 228.275L38.7627 228.032C41.4043 223.285 44.1621 218.559 47.0302 213.862L47.457 214.123C50.2873 209.487 53.2253 204.879 56.2651 200.302L55.8487 200.026C58.8601 195.492 61.9713 190.991 65.1768 186.526L65.583 186.818C68.7563 182.398 72.0222 178.014 75.3752 173.672L74.9795 173.366C78.3104 169.053 81.7272 164.779 85.2245 160.552L85.6098 160.871C89.081 156.675 92.6317 152.524 96.2568 148.423L95.8821 148.092C99.4961 144.003 103.184 139.964 106.94 135.979L107.304 136.322C111.047 132.351 114.858 128.434 118.732 124.576L118.379 124.221C122.253 120.364 126.19 116.565 130.184 112.829L130.526 113.194C134.518 109.461 138.568 105.79 142.671 102.188L142.341 101.812C146.455 98.2005 150.622 94.6568 154.837 91.186L155.155 91.572C159.379 88.0935 163.652 84.6884 167.968 81.3615L167.662 80.9655C172.003 77.6194 176.388 74.3522 180.81 71.1689L181.102 71.5747C185.553 68.3711 190.043 65.2526 194.566 62.224L194.288 61.8086C198.853 58.7519 203.452 55.7868 208.081 52.9182L208.344 53.3432C213.012 50.4498 217.71 47.6548 222.43 44.9635L222.183 44.5291C226.963 41.8041 231.767 39.1851 236.589 36.6777L236.82 37.1213C241.699 34.5844 246.597 32.1618 251.508 29.8593L251.296 29.4066C256.284 27.0673 261.286 24.8517 266.295 22.7655L266.487 23.2271C271.57 21.11 276.659 19.1266 281.749 17.2829L281.579 16.8128C286.766 14.9338 291.954 13.1995 297.135 11.6166L297.282 12.0948C302.553 10.4845 307.816 9.03123 313.066 7.74174L312.946 7.25618C318.309 5.93872 323.658 4.79184 328.984 3.82283L329.073 4.31476C334.497 3.32801 339.896 2.52616 345.263 1.91688L345.207 1.42007C350.693 0.797295 356.145 0.375213 361.556 0.162048L361.576 0.661661C364.303 0.554235 367.019 0.5 369.723 0.5C372.33 0.5 374.932 0.576343 377.53 0.727262L377.559 0.228104C382.763 0.530473 387.946 1.13108 393.104 2.01571L393.02 2.50852C398.116 3.38258 403.189 4.53502 408.235 5.9522L408.37 5.47083C413.349 6.86946 418.301 8.52493 423.221 10.4241L423.041 10.8905C427.842 12.7438 432.615 14.83 437.354 17.137L437.573 16.6875C442.209 18.9443 446.813 21.4116 451.381 24.0779L451.129 24.5097C455.572 27.1025 459.982 29.8843 464.355 32.8444L464.636 32.4303C468.908 35.3218 473.145 38.3828 477.344 41.6034L477.04 42.0001C481.13 45.1373 485.185 48.4265 489.202 51.8587L489.527 51.4786C493.458 54.838 497.353 58.3339 501.208 61.9578L500.865 62.3221C504.624 65.8548 508.344 69.5096 512.026 73.2784L512.383 72.929C515.992 76.6238 519.563 80.4279 523.093 84.3338L522.722 84.669C526.188 88.5037 529.615 92.4368 533.001 96.4612L533.384 96.1393C536.722 100.107 540.02 104.163 543.276 108.301L542.884 108.61C546.093 112.688 549.261 116.845 552.387 121.075L552.789 120.778C555.875 124.955 558.92 129.202 561.921 133.515L561.511 133.8C564.473 138.058 567.394 142.378 570.271 146.756L570.689 146.482C573.545 150.829 576.358 155.233 579.127 159.687L578.702 159.951C581.45 164.372 584.153 168.843 586.81 173.358L587.241 173.105C589.884 177.597 592.482 182.132 595.033 186.706L594.596 186.95C597.133 191.499 599.623 196.086 602.065 200.705L602.507 200.471C604.947 205.086 607.339 209.733 609.68 214.407L609.233 214.631C611.572 219.298 613.861 223.992 616.099 228.707L616.55 228.493C618.791 233.215 620.981 237.958 623.117 242.716L622.661 242.921C624.804 247.694 626.893 252.483 628.927 257.281L629.388 257.086C631.433 261.911 633.422 266.745 635.354 271.583L634.89 271.769C636.832 276.633 638.716 281.501 640.54 286.367L641.008 286.192C642.848 291.1 644.627 296.007 646.344 300.906L645.872 301.071C647.611 306.033 649.286 310.988 650.894 315.929L651.37 315.774C653 320.78 654.562 325.771 656.055 330.742L655.576 330.886C657.089 335.925 658.531 340.943 659.899 345.933L660.381 345.801C661.774 350.879 663.091 355.929 664.329 360.943L663.844 361.062C665.108 366.178 666.29 371.257 667.389 376.29L667.877 376.183C669.008 381.363 670.051 386.495 671.002 391.571L670.511 391.663C671.488 396.875 672.37 402.029 673.153 407.114L673.647 407.038C674.456 412.293 675.16 417.476 675.757 422.578L675.26 422.636C675.878 427.922 676.381 433.12 676.764 438.218L677.263 438.181C677.663 443.51 677.934 448.731 678.072 453.833L677.572 453.846C677.642 456.452 677.677 459.027 677.677 461.569Z" stroke="#F06500" stroke-dasharray="16 16"/>
</svg>
