<svg width="615" height="1292" viewBox="0 0 615 1292" fill="none" xmlns="http://www.w3.org/2000/svg">
<path d="M1020.99 779.604C1020.99 782.266 1020.91 784.909 1020.76 787.532L1021.25 787.562C1020.93 792.879 1020.29 798.116 1019.35 803.271L1018.86 803.181C1017.9 808.37 1016.64 813.476 1015.09 818.499L1015.57 818.647C1014.02 823.68 1012.17 828.63 1010.05 833.494L1009.59 833.294C1007.5 838.083 1005.14 842.789 1002.54 847.411L1002.97 847.657C1000.4 852.209 997.593 856.68 994.556 861.069L994.144 860.784C991.182 865.064 988.002 869.266 984.62 873.389L985.006 873.706C981.697 877.74 978.194 881.697 974.512 885.577L974.149 885.232C970.564 889.01 966.809 892.714 962.895 896.344L963.234 896.711C959.406 900.262 955.426 903.741 951.307 907.148L950.989 906.763C946.969 910.089 942.816 913.346 938.541 916.534L938.839 916.935C934.646 920.062 930.335 923.122 925.917 926.114L925.637 925.7C921.307 928.633 916.874 931.5 912.348 934.302L912.611 934.727C908.153 937.487 903.605 940.183 898.977 942.814L898.73 942.379C894.171 944.97 889.534 947.499 884.828 949.964L885.06 950.407C880.404 952.845 875.681 955.222 870.898 957.535L870.68 957.085C865.948 959.374 861.158 961.602 856.318 963.767L856.522 964.224C851.714 966.375 846.857 968.465 841.96 970.493L841.768 970.031C836.901 972.046 831.993 974.001 827.053 975.893L827.232 976.36C822.304 978.248 817.344 980.075 812.36 981.839L812.193 981.368C807.217 983.13 802.216 984.829 797.199 986.467L797.354 986.942C792.325 988.584 787.279 990.163 782.225 991.678L782.082 991.199C777.011 992.72 771.932 994.176 766.853 995.569L766.985 996.051C761.869 997.453 756.753 998.79 751.645 1000.06L751.524 999.576C746.374 1000.86 741.231 1002.07 736.105 1003.22L736.215 1003.71C731.024 1004.87 725.851 1005.96 720.703 1006.98L720.605 1006.49C715.384 1007.53 710.19 1008.49 705.031 1009.39L705.116 1009.88C699.858 1010.79 694.637 1011.62 689.462 1012.38L689.39 1011.88C684.104 1012.66 678.867 1013.35 673.688 1013.96L673.747 1014.46C668.425 1015.09 663.164 1015.64 657.977 1016.1L657.933 1015.6C652.585 1016.07 647.314 1016.46 642.134 1016.75L642.162 1017.25C636.778 1017.55 631.491 1017.75 626.315 1017.86L626.306 1017.36C623.662 1017.41 621.047 1017.44 618.463 1017.44C615.812 1017.44 613.187 1017.38 610.587 1017.27L610.565 1017.77C605.256 1017.53 600.052 1017.07 594.953 1016.39L595.02 1015.89C589.787 1015.19 584.665 1014.25 579.653 1013.1L579.54 1013.58C574.393 1012.39 569.361 1010.97 564.444 1009.32L564.603 1008.84C559.627 1007.17 554.77 1005.28 550.029 1003.16L549.825 1003.62C545.037 1001.48 540.369 999.127 535.819 996.563L536.064 996.127C531.525 993.569 527.103 990.802 522.798 987.841L522.514 988.253C518.22 985.297 514.041 982.149 509.98 978.819L510.297 978.432C506.285 975.143 502.387 971.677 498.601 968.045L498.255 968.406C494.506 964.809 490.867 961.05 487.339 957.141L487.71 956.806C484.237 952.959 480.87 948.966 477.609 944.838L477.217 945.147C473.997 941.071 470.88 936.863 467.866 932.535L468.276 932.249C465.314 927.996 462.451 923.626 459.686 919.149L459.261 919.412C456.534 914.995 453.902 910.474 451.366 905.86L451.804 905.62C449.306 901.074 446.899 896.436 444.586 891.717L444.137 891.937C441.848 887.268 439.649 882.519 437.539 877.7L437.997 877.499C435.914 872.738 433.917 867.907 432.008 863.015L431.543 863.197C429.649 858.344 427.841 853.432 426.118 848.469L426.59 848.305C424.883 843.385 423.259 838.415 421.719 833.403L421.241 833.55C419.708 828.562 418.257 823.533 416.889 818.47L417.372 818.34C416.01 813.303 414.73 808.234 413.531 803.139L413.044 803.253C411.847 798.165 410.73 793.052 409.693 787.922L410.183 787.823C409.147 782.7 408.192 777.56 407.316 772.41L406.823 772.494C405.945 767.33 405.146 762.158 404.427 756.984L404.922 756.915C404.201 751.726 403.56 746.536 402.999 741.353L402.502 741.407C401.936 736.187 401.452 730.975 401.047 725.778L401.545 725.739C401.138 720.504 400.812 715.284 400.567 710.088L400.067 710.111C399.819 704.854 399.654 699.621 399.571 694.422L400.071 694.414C400.03 691.8 400.009 689.194 400.009 686.597C400.009 683.956 400.068 681.305 400.185 678.645L399.685 678.623C399.917 673.34 400.376 668.024 401.052 662.682L401.548 662.745C402.21 657.515 403.08 652.261 404.151 646.991L403.661 646.892C404.712 641.714 405.956 636.522 407.383 631.323L407.865 631.456C409.26 626.371 410.832 621.279 412.571 616.188L412.098 616.027C413.806 611.025 415.676 606.025 417.7 601.034L418.163 601.221C420.146 596.329 422.278 591.445 424.549 586.575L424.096 586.364C426.333 581.569 428.706 576.789 431.208 572.03L431.65 572.262C434.11 567.583 436.696 562.923 439.399 558.289L438.967 558.037C441.638 553.461 444.423 548.91 447.318 544.39L447.739 544.66C450.596 540.2 453.559 535.77 456.622 531.377L456.212 531.091C459.248 526.737 462.383 522.419 465.609 518.142L466.008 518.443C469.205 514.206 472.492 510.01 475.864 505.86L475.476 505.545C478.83 501.417 482.268 497.335 485.783 493.304L486.16 493.633C489.656 489.625 493.229 485.667 496.873 481.766L496.508 481.425C500.145 477.53 503.854 473.692 507.628 469.914L507.982 470.267C511.747 466.498 515.579 462.789 519.469 459.146L519.128 458.781C523.024 455.133 526.981 451.55 530.992 448.039L531.322 448.415C535.337 444.899 539.407 441.455 543.526 438.087L543.21 437.7C547.349 434.316 551.538 431.008 555.771 427.783L556.074 428.181C560.326 424.941 564.622 421.785 568.956 418.717L568.667 418.309C573.039 415.215 577.45 412.211 581.893 409.303L582.167 409.721C586.647 406.789 591.161 403.954 595.702 401.223L595.444 400.794C600.041 398.029 604.667 395.368 609.314 392.819L609.555 393.258C614.257 390.679 618.982 388.214 623.723 385.869L623.501 385.421C628.319 383.037 633.154 380.778 637.998 378.649L638.2 379.106C643.118 376.945 648.047 374.917 652.978 373.031L652.799 372.564C657.83 370.64 662.863 368.863 667.892 367.239L668.046 367.715C673.167 366.061 678.282 364.567 683.384 363.241L683.258 362.757C688.478 361.4 693.685 360.217 698.869 359.217L698.964 359.708C704.249 358.689 709.511 357.86 714.74 357.229L714.68 356.732C720.033 356.087 725.352 355.649 730.628 355.428L730.649 355.927C733.31 355.815 735.96 355.759 738.598 355.759C741.273 355.759 743.944 355.847 746.608 356.021L746.641 355.522C751.978 355.869 757.292 356.559 762.577 357.573L762.482 358.064C767.69 359.064 772.87 360.379 778.017 361.993L778.166 361.516C783.229 363.103 788.258 364.978 793.251 367.124L793.053 367.584C797.898 369.667 802.709 372.006 807.481 374.586L807.718 374.146C812.365 376.659 816.973 379.399 821.54 382.353L821.269 382.773C825.695 385.636 830.083 388.701 834.429 391.955L834.728 391.555C838.962 394.725 843.155 398.073 847.303 401.588L846.98 401.969C851.013 405.387 855.004 408.962 858.951 412.684L859.294 412.32C863.151 415.958 866.966 419.736 870.734 423.644L870.374 423.991C874.049 427.802 877.68 431.737 881.264 435.786L881.639 435.454C885.157 439.428 888.63 443.511 892.055 447.695L891.668 448.012C895.031 452.12 898.348 456.325 901.617 460.619L902.015 460.316C905.24 464.552 908.417 468.873 911.545 473.273L911.138 473.563C914.224 477.903 917.262 482.32 920.25 486.806L920.666 486.529C923.625 490.971 926.535 495.481 929.394 500.051L928.97 500.316C931.803 504.843 934.584 509.428 937.313 514.065L937.744 513.811C940.458 518.422 943.119 523.082 945.726 527.786L945.289 528.029C947.881 532.705 950.42 537.424 952.902 542.179L953.346 541.948C955.826 546.698 958.251 551.484 960.618 556.299L960.17 556.52C962.536 561.331 964.844 566.172 967.093 571.033L967.547 570.823C969.802 575.698 971.997 580.595 974.13 585.506L973.671 585.705C975.811 590.632 977.889 595.574 979.902 600.522L980.365 600.334C982.391 605.316 984.353 610.306 986.246 615.295L985.779 615.473C987.69 620.51 989.533 625.547 991.305 630.576L991.776 630.41C993.571 635.504 995.292 640.59 996.938 645.661L996.463 645.815C998.131 650.955 999.722 656.078 1001.23 661.177L1001.71 661.035C1003.25 666.227 1004.71 671.394 1006.08 676.527L1005.6 676.656C1006.99 681.891 1008.3 687.091 1009.52 692.245L1010.01 692.13C1011.26 697.418 1012.41 702.659 1013.47 707.843L1012.98 707.942C1014.06 713.273 1015.04 718.544 1015.91 723.742L1016.41 723.66C1017.31 729.046 1018.1 734.355 1018.76 739.576L1018.27 739.64C1018.96 745.068 1019.53 750.4 1019.96 755.622L1020.46 755.581C1020.91 761.062 1021.22 766.424 1021.37 771.65L1020.87 771.665C1020.95 774.348 1020.99 776.995 1020.99 779.604Z" stroke="#F06500" stroke-dasharray="16 16"/>
<path d="M1050.06 787.763C1050.06 790.493 1049.98 793.205 1049.83 795.898L1050.33 795.926C1050.01 801.379 1049.39 806.754 1048.48 812.05L1047.98 811.965C1047.06 817.298 1045.84 822.551 1044.33 827.724L1044.81 827.864C1043.3 833.054 1041.5 838.162 1039.43 843.188L1038.97 842.998C1036.92 847.963 1034.62 852.848 1032.06 857.652L1032.5 857.887C1029.98 862.629 1027.21 867.292 1024.22 871.874L1023.8 871.6C1020.87 876.076 1017.73 880.475 1014.38 884.796L1014.78 885.103C1011.5 889.336 1008.03 893.494 1004.37 897.576L1004 897.243C1000.43 901.223 996.691 905.131 992.788 908.967L993.139 909.323C989.318 913.079 985.341 916.764 981.221 920.378L980.891 920.003C976.869 923.531 972.708 926.993 968.42 930.386L968.731 930.778C964.527 934.104 960.202 937.364 955.764 940.558L955.472 940.152C951.123 943.282 946.666 946.348 942.11 949.349L942.385 949.767C937.9 952.722 933.319 955.614 928.651 958.443L928.392 958.016C923.798 960.8 919.119 963.523 914.365 966.184L914.609 966.621C909.91 969.25 905.137 971.82 900.298 974.329L900.068 973.885C895.286 976.364 890.44 978.783 885.536 981.142L885.753 981.593C880.889 983.933 875.969 986.213 871.001 988.434L870.797 987.978C865.869 990.181 860.893 992.325 855.877 994.41L856.069 994.872C851.077 996.947 846.046 998.962 840.982 1000.92L840.802 1000.45C835.759 1002.4 830.684 1004.29 825.584 1006.12L825.753 1006.59C820.654 1008.42 815.53 1010.19 810.388 1011.9L810.23 1011.43C805.088 1013.14 799.927 1014.79 794.756 1016.38L794.903 1016.85C789.714 1018.45 784.514 1019.98 779.311 1021.46L779.175 1020.97C773.951 1022.45 768.723 1023.87 763.5 1025.22L763.626 1025.71C758.363 1027.07 753.104 1028.37 747.857 1029.61L747.743 1029.12C742.444 1030.37 737.157 1031.55 731.89 1032.67L731.994 1033.16C726.654 1034.29 721.335 1035.36 716.043 1036.35L715.951 1035.86C710.583 1036.87 705.245 1037.81 699.944 1038.68L700.025 1039.17C694.623 1040.06 689.26 1040.87 683.945 1041.61L683.876 1041.11C678.449 1041.87 673.073 1042.54 667.755 1043.14L667.811 1043.63C662.351 1044.25 656.954 1044.78 651.63 1045.22L651.589 1044.72C646.106 1045.18 640.7 1045.55 635.384 1045.84L635.41 1046.34C629.895 1046.63 624.475 1046.82 619.163 1046.92L619.153 1046.42C616.446 1046.47 613.766 1046.5 611.116 1046.5C608.422 1046.5 605.752 1046.45 603.106 1046.34L603.086 1046.84C597.695 1046.62 592.402 1046.19 587.209 1045.54L587.27 1045.04C581.945 1044.38 576.724 1043.5 571.607 1042.4L571.502 1042.89C566.257 1041.77 561.12 1040.43 556.091 1038.87L556.239 1038.39C551.145 1036.82 546.162 1035.03 541.289 1033.03L541.099 1033.49C536.164 1031.46 531.342 1029.23 526.632 1026.79L526.862 1026.35C522.153 1023.91 517.556 1021.27 513.071 1018.44L512.804 1018.86C508.319 1016.04 503.945 1013.02 499.683 1009.82L499.983 1009.42C495.758 1006.25 491.643 1002.91 487.637 999.399L487.307 999.775C483.33 996.292 479.46 992.646 475.696 988.849L476.051 988.497C472.339 984.752 468.731 980.859 465.226 976.829L464.849 977.157C461.383 973.171 458.017 969.052 454.752 964.807L455.148 964.502C451.937 960.328 448.823 956.033 445.805 951.627L445.393 951.909C442.411 947.555 439.523 943.093 436.729 938.531L437.155 938.27C434.402 933.775 431.74 929.183 429.168 924.502L428.729 924.742C426.186 920.113 423.73 915.397 421.363 910.604L421.811 910.382C419.474 905.649 417.222 900.84 415.055 895.962L414.599 896.165C412.452 891.331 410.388 886.43 408.408 881.47L408.873 881.285C406.913 876.375 405.034 871.406 403.237 866.387L402.767 866.556C400.981 861.569 399.276 856.532 397.65 851.452L398.126 851.3C396.512 846.256 394.977 841.171 393.52 836.05L393.039 836.187C391.587 831.084 390.213 825.947 388.916 820.782L389.401 820.66C388.109 815.515 386.894 810.343 385.755 805.151L385.267 805.258C384.128 800.067 383.066 794.856 382.081 789.632L382.572 789.539C381.586 784.317 380.677 779.082 379.843 773.842L379.349 773.92C378.512 768.663 377.752 763.399 377.067 758.137L377.563 758.072C376.876 752.793 376.265 747.514 375.73 742.244L375.232 742.295C374.694 736.988 374.232 731.69 373.846 726.407L374.345 726.371C373.956 721.05 373.646 715.746 373.412 710.465L372.913 710.487C372.676 705.146 372.519 699.83 372.44 694.546L372.94 694.538C372.901 691.883 372.881 689.236 372.881 686.597C372.881 683.889 372.938 681.172 373.051 678.446L372.552 678.425C372.776 673.008 373.222 667.558 373.878 662.082L374.375 662.142C375.019 656.775 375.866 651.384 376.909 645.976L376.418 645.881C377.443 640.564 378.657 635.23 380.051 629.889L380.535 630.015C381.9 624.784 383.438 619.546 385.142 614.306L384.667 614.151C386.342 608.999 388.178 603.846 390.166 598.7L390.632 598.88C392.582 593.831 394.679 588.789 396.917 583.757L396.46 583.554C398.665 578.598 401.005 573.654 403.475 568.727L403.922 568.951C406.351 564.105 408.906 559.276 411.58 554.47L411.144 554.227C413.785 549.479 416.543 544.754 419.411 540.056L419.838 540.317C422.668 535.681 425.606 531.073 428.646 526.497L428.23 526.22C431.241 521.687 434.352 517.185 437.558 512.72L437.964 513.012C441.137 508.592 444.403 504.209 447.756 499.866L447.36 499.561C450.691 495.247 454.108 490.974 457.605 486.746L457.991 487.065C461.462 482.869 465.013 478.718 468.638 474.617L468.263 474.286C471.877 470.197 475.565 466.158 479.321 462.173L479.685 462.516C483.428 458.545 487.239 454.628 491.113 450.77L490.76 450.416C494.634 446.558 498.571 442.759 502.565 439.023L502.907 439.388C506.899 435.655 510.949 431.985 515.052 428.383L514.722 428.007C518.836 424.395 523.003 420.851 527.218 417.38L527.536 417.766C531.76 414.288 536.033 410.883 540.349 407.556L540.043 407.16C544.384 403.814 548.768 400.547 553.191 397.363L553.483 397.769C557.934 394.565 562.424 391.447 566.947 388.418L566.669 388.003C571.234 384.946 575.833 381.981 580.461 379.113L580.725 379.538C585.393 376.644 590.09 373.849 594.811 371.158L594.564 370.723C599.344 367.998 604.148 365.379 608.97 362.872L609.201 363.316C614.08 360.779 618.978 358.356 623.889 356.054L623.676 355.601C628.665 353.262 633.667 351.046 638.676 348.96L638.868 349.421C643.951 347.304 649.04 345.321 654.13 343.477L653.96 343.007C659.147 341.128 664.335 339.394 669.516 337.811L669.662 338.289C674.933 336.679 680.197 335.226 685.446 333.936L685.327 333.451C690.69 332.133 696.039 330.986 701.365 330.017L701.454 330.509C706.877 329.522 712.277 328.72 717.644 328.111L717.587 327.614C723.073 326.992 728.526 326.57 733.937 326.356L733.957 326.856C736.684 326.749 739.4 326.694 742.104 326.694C744.711 326.694 747.313 326.771 749.911 326.922L749.94 326.422C755.144 326.725 760.327 327.325 765.485 328.21L765.401 328.703C770.497 329.577 775.57 330.729 780.616 332.147L780.751 331.665C785.73 333.064 790.682 334.719 795.602 336.618L795.422 337.085C800.223 338.938 804.995 341.024 809.735 343.331L809.953 342.882C814.59 345.139 819.194 347.606 823.762 350.272L823.51 350.704C827.953 353.297 832.363 356.079 836.736 359.039L837.017 358.625C841.289 361.516 845.526 364.577 849.725 367.798L849.421 368.194C853.511 371.332 857.566 374.621 861.583 378.053L861.908 377.673C865.839 381.032 869.734 384.528 873.589 388.152L873.246 388.516C877.004 392.049 880.725 395.704 884.407 399.473L884.764 399.123C888.373 402.818 891.944 406.622 895.474 410.528L895.103 410.863C898.569 414.698 901.996 418.631 905.382 422.656L905.765 422.334C909.103 426.301 912.401 430.357 915.657 434.495L915.264 434.804C918.473 438.882 921.642 443.039 924.768 447.27L925.17 446.973C928.256 451.149 931.301 455.397 934.302 459.709L933.891 459.995C936.854 464.252 939.775 468.573 942.652 472.951L943.07 472.676C945.926 477.023 948.739 481.427 951.507 485.881L951.083 486.145C953.83 490.566 956.534 495.037 959.191 499.553L959.622 499.299C962.265 503.791 964.863 508.327 967.414 512.9L966.977 513.144C969.514 517.693 972.004 522.28 974.446 526.899L974.888 526.665C977.328 531.28 979.72 535.927 982.061 540.601L981.614 540.825C983.953 545.493 986.242 550.187 988.48 554.902L988.931 554.687C991.172 559.409 993.362 564.152 995.498 568.91L995.042 569.115C997.184 573.888 999.274 578.677 1001.31 583.476L1001.77 583.281C1003.81 588.105 1005.8 592.939 1007.73 597.778L1007.27 597.963C1009.21 602.827 1011.1 607.695 1012.92 612.562L1013.39 612.386C1015.23 617.294 1017.01 622.201 1018.72 627.1L1018.25 627.266C1019.99 632.228 1021.67 637.182 1023.28 642.123L1023.75 641.968C1025.38 646.974 1026.94 651.965 1028.44 656.936L1027.96 657.08C1029.47 662.12 1030.91 667.138 1032.28 672.128L1032.76 671.995C1034.15 677.074 1035.47 682.123 1036.71 687.137L1036.22 687.257C1037.49 692.373 1038.67 697.451 1039.77 702.484L1040.26 702.377C1041.39 707.557 1042.43 712.689 1043.38 717.765L1042.89 717.857C1043.87 723.07 1044.75 728.223 1045.53 733.308L1046.03 733.232C1046.84 738.487 1047.54 743.671 1048.14 748.772L1047.64 748.83C1048.26 754.116 1048.76 759.314 1049.14 764.413L1049.64 764.375C1050.04 769.704 1050.32 774.926 1050.45 780.027L1049.95 780.04C1050.02 782.647 1050.06 785.221 1050.06 787.763Z" stroke="#F06500" stroke-dasharray="16 16"/>
<path d="M1022.93 758.698C1022.93 761.429 1022.85 764.14 1022.7 766.833L1023.2 766.861C1022.89 772.314 1022.27 777.689 1021.35 782.985L1020.86 782.9C1019.93 788.233 1018.71 793.486 1017.2 798.659L1017.68 798.799C1016.17 803.989 1014.37 809.097 1012.3 814.123L1011.84 813.933C1009.8 818.898 1007.49 823.783 1004.93 828.587L1005.37 828.822C1002.85 833.564 1000.08 838.227 997.09 842.809L996.671 842.535C993.747 847.011 990.604 851.41 987.256 855.732L987.652 856.038C984.373 860.271 980.899 864.429 977.242 868.511L976.869 868.178C973.304 872.158 969.564 876.066 965.661 879.902L966.012 880.258C962.191 884.014 958.215 887.699 954.094 891.313L953.765 890.938C949.742 894.466 945.581 897.928 941.293 901.321L941.604 901.713C937.4 905.039 933.075 908.299 928.637 911.493L928.345 911.087C923.996 914.217 919.539 917.283 914.983 920.284L915.258 920.702C910.773 923.657 906.192 926.549 901.524 929.378L901.265 928.951C896.671 931.735 891.992 934.458 887.238 937.119L887.482 937.556C882.783 940.186 878.01 942.755 873.172 945.264L872.941 944.82C868.159 947.299 863.313 949.718 858.409 952.077L858.626 952.528C853.762 954.868 848.842 957.148 843.874 959.369L843.67 958.913C838.742 961.116 833.766 963.26 828.75 965.345L828.942 965.807C823.95 967.882 818.919 969.897 813.855 971.854L813.675 971.387C808.632 973.336 803.557 975.225 798.457 977.055L798.626 977.525C793.527 979.355 788.403 981.125 783.261 982.835L783.103 982.361C777.961 984.071 772.8 985.721 767.629 987.311L767.776 987.789C762.587 989.384 757.387 990.918 752.184 992.391L752.048 991.91C746.824 993.388 741.597 994.805 736.373 996.159L736.499 996.643C731.236 998.007 725.977 999.307 720.73 1000.54L720.616 1000.06C715.317 1001.31 710.03 1002.49 704.763 1003.61L704.867 1004.09C699.527 1005.23 694.208 1006.29 688.917 1007.29L688.824 1006.8C683.456 1007.81 678.118 1008.75 672.817 1009.62L672.898 1010.11C667.496 1010.99 662.133 1011.81 656.818 1012.54L656.749 1012.05C651.322 1012.8 645.946 1013.48 640.628 1014.07L640.684 1014.57C635.225 1015.18 629.827 1015.71 624.503 1016.16L624.462 1015.66C618.979 1016.12 613.573 1016.49 608.257 1016.77L608.283 1017.27C602.768 1017.56 597.348 1017.76 592.036 1017.86L592.026 1017.36C589.319 1017.41 586.639 1017.44 583.989 1017.44C581.295 1017.44 578.625 1017.38 575.979 1017.27L575.959 1017.77C570.568 1017.56 565.275 1017.12 560.082 1016.48L560.143 1015.98C554.818 1015.32 549.597 1014.43 544.48 1013.34L544.375 1013.83C539.13 1012.71 533.993 1011.36 528.964 1009.81L529.112 1009.33C524.018 1007.75 519.035 1005.96 514.162 1003.96L513.972 1004.42C509.037 1002.4 504.215 1000.16 499.505 997.724L499.735 997.28C495.026 994.843 490.429 992.205 485.944 989.376L485.677 989.799C481.192 986.97 476.818 983.952 472.556 980.755L472.856 980.355C468.631 977.187 464.516 973.843 460.51 970.334L460.18 970.71C456.203 967.227 452.333 963.581 448.569 959.784L448.924 959.432C445.213 955.687 441.604 951.794 438.099 947.764L437.722 948.092C434.256 944.106 430.89 939.987 427.625 935.742L428.021 935.437C424.81 931.263 421.696 926.968 418.678 922.562L418.266 922.844C415.284 918.491 412.396 914.028 409.602 909.466L410.028 909.205C407.275 904.71 404.613 900.118 402.041 895.437L401.603 895.677C399.059 891.048 396.603 886.332 394.236 881.539L394.684 881.317C392.347 876.584 390.095 871.775 387.929 866.897L387.472 867.1C385.325 862.266 383.261 857.365 381.281 852.405L381.746 852.22C379.786 847.31 377.907 842.341 376.11 837.322L375.64 837.491C373.854 832.504 372.149 827.467 370.523 822.388L370.999 822.235C369.385 817.191 367.85 812.106 366.393 806.985L365.912 807.122C364.46 802.019 363.086 796.882 361.789 791.717L362.274 791.595C360.982 786.45 359.767 781.278 358.628 776.086L358.14 776.193C357.001 771.002 355.94 765.791 354.954 760.567L355.445 760.474C354.459 755.252 353.55 750.017 352.716 744.777L352.222 744.855C351.386 739.598 350.625 734.334 349.94 729.072L350.436 729.007C349.749 723.728 349.138 718.449 348.603 713.179L348.105 713.23C347.567 707.923 347.105 702.625 346.719 697.342L347.218 697.306C346.829 691.985 346.519 686.681 346.285 681.4L345.786 681.422C345.549 676.082 345.392 670.765 345.313 665.481L345.813 665.473C345.774 662.818 345.754 660.171 345.754 657.532C345.754 654.825 345.811 652.107 345.924 649.381L345.425 649.36C345.649 643.943 346.095 638.493 346.751 633.017L347.248 633.077C347.892 627.71 348.739 622.319 349.782 616.911L349.291 616.816C350.316 611.499 351.53 606.165 352.924 600.824L353.408 600.95C354.773 595.719 356.311 590.481 358.015 585.241L357.54 585.086C359.215 579.934 361.051 574.781 363.039 569.635L363.505 569.815C365.455 564.767 367.552 559.724 369.79 554.692L369.333 554.489C371.538 549.533 373.878 544.589 376.348 539.662L376.795 539.887C379.224 535.04 381.779 530.211 384.453 525.405L384.017 525.162C386.658 520.414 389.416 515.689 392.284 510.991L392.711 511.252C395.541 506.616 398.479 502.008 401.519 497.432L401.103 497.155C404.114 492.622 407.225 488.12 410.431 483.655L410.837 483.947C414.01 479.527 417.276 475.144 420.629 470.801L420.233 470.496C423.564 466.182 426.981 461.909 430.478 457.681L430.864 458C434.335 453.804 437.886 449.653 441.511 445.552L441.136 445.221C444.75 441.132 448.438 437.093 452.194 433.108L452.558 433.451C456.301 429.48 460.112 425.563 463.986 421.705L463.633 421.351C467.507 417.493 471.444 413.694 475.438 409.958L475.78 410.323C479.772 406.59 483.822 402.92 487.925 399.318L487.595 398.942C491.709 395.33 495.876 391.786 500.091 388.315L500.409 388.701C504.633 385.223 508.906 381.818 513.222 378.491L512.916 378.095C517.257 374.749 521.641 371.482 526.064 368.298L526.356 368.704C530.807 365.501 535.297 362.382 539.82 359.353L539.542 358.938C544.107 355.881 548.706 352.916 553.334 350.048L553.598 350.473C558.266 347.579 562.963 344.784 567.684 342.093L567.437 341.658C572.217 338.933 577.021 336.315 581.843 333.807L582.074 334.251C586.953 331.714 591.851 329.291 596.762 326.989L596.549 326.536C601.538 324.197 606.54 321.981 611.549 319.895L611.741 320.356C616.824 318.239 621.913 316.256 627.003 314.412L626.833 313.942C632.02 312.063 637.208 310.329 642.389 308.746L642.535 309.224C647.806 307.614 653.07 306.161 658.32 304.871L658.2 304.386C663.563 303.068 668.912 301.921 674.238 300.952L674.327 301.444C679.75 300.457 685.15 299.656 690.517 299.046L690.461 298.549C695.946 297.927 701.399 297.505 706.81 297.291L706.83 297.791C709.557 297.684 712.273 297.629 714.977 297.629C717.584 297.629 720.186 297.706 722.784 297.857L722.813 297.357C728.017 297.66 733.2 298.26 738.358 299.145L738.274 299.638C743.37 300.512 748.443 301.664 753.489 303.082L753.624 302.6C758.603 303.999 763.555 305.654 768.475 307.553L768.295 308.02C773.096 309.873 777.868 311.959 782.608 314.266L782.826 313.817C787.463 316.074 792.067 318.541 796.635 321.207L796.383 321.639C800.826 324.232 805.236 327.014 809.609 329.974L809.89 329.56C814.162 332.451 818.399 335.512 822.598 338.733L822.294 339.13C826.384 342.267 830.439 345.556 834.456 348.988L834.781 348.608C838.712 351.967 842.607 355.463 846.462 359.087L846.119 359.451C849.877 362.984 853.598 366.639 857.28 370.408L857.637 370.058C861.246 373.753 864.817 377.557 868.347 381.463L867.976 381.798C871.442 385.633 874.869 389.566 878.255 393.591L878.638 393.269C881.976 397.236 885.274 401.292 888.53 405.43L888.137 405.739C891.346 409.817 894.515 413.974 897.641 418.205L898.043 417.908C901.129 422.084 904.174 426.332 907.175 430.644L906.764 430.93C909.727 435.187 912.648 439.508 915.525 443.886L915.943 443.611C918.799 447.958 921.612 452.362 924.38 456.816L923.956 457.08C926.703 461.501 929.407 465.972 932.064 470.488L932.495 470.234C935.138 474.726 937.736 479.262 940.287 483.835L939.85 484.079C942.387 488.628 944.877 493.215 947.319 497.834L947.761 497.6C950.201 502.215 952.593 506.862 954.934 511.536L954.487 511.76C956.826 516.428 959.115 521.122 961.353 525.837L961.804 525.622C964.045 530.344 966.235 535.087 968.371 539.845L967.915 540.05C970.057 544.824 972.147 549.612 974.181 554.411L974.641 554.216C976.687 559.04 978.676 563.874 980.608 568.713L980.144 568.898C982.086 573.762 983.97 578.63 985.794 583.497L986.262 583.321C988.102 588.229 989.881 593.136 991.598 598.035L991.126 598.201C992.865 603.163 994.539 608.117 996.148 613.058L996.624 612.903C998.253 617.909 999.816 622.9 1001.31 627.871L1000.83 628.015C1002.34 633.055 1003.78 638.073 1005.15 643.063L1005.64 642.93C1007.03 648.009 1008.34 653.058 1009.58 658.072L1009.1 658.192C1010.36 663.308 1011.54 668.386 1012.64 673.419L1013.13 673.312C1014.26 678.492 1015.3 683.624 1016.26 688.7L1015.76 688.792C1016.74 694.005 1017.62 699.158 1018.41 704.243L1018.9 704.167C1019.71 709.423 1020.41 714.606 1021.01 719.707L1020.51 719.765C1021.13 725.051 1021.63 730.249 1022.02 735.348L1022.52 735.31C1022.92 740.639 1023.19 745.861 1023.33 750.962L1022.83 750.975C1022.9 753.582 1022.93 756.157 1022.93 758.698Z" stroke="#F06500" stroke-dasharray="16 16"/>
<path d="M995.804 729.633C995.804 732.364 995.727 735.076 995.573 737.768L996.072 737.797C995.761 743.249 995.139 748.624 994.223 753.921L993.73 753.835C992.807 759.168 991.584 764.422 990.076 769.595L990.556 769.734C989.043 774.924 987.245 780.033 985.177 785.059L984.714 784.868C982.671 789.834 980.363 794.719 977.806 799.522L978.248 799.757C975.723 804.499 972.957 809.162 969.963 813.744L969.544 813.47C966.62 817.946 963.477 822.345 960.13 826.667L960.525 826.973C957.246 831.206 953.772 835.364 950.115 839.447L949.742 839.113C946.177 843.093 942.437 847.001 938.534 850.837L938.885 851.194C935.064 854.949 931.088 858.634 926.967 862.249L926.638 861.873C922.615 865.402 918.455 868.863 914.167 872.256L914.477 872.648C910.273 875.974 905.948 879.234 901.51 882.428L901.218 882.022C896.869 885.152 892.412 888.218 887.856 891.22L888.131 891.637C883.646 894.592 879.065 897.484 874.397 900.314L874.138 899.886C869.544 902.67 864.865 905.393 860.111 908.055L860.355 908.491C855.656 911.121 850.883 913.69 846.045 916.199L845.814 915.755C841.033 918.234 836.186 920.653 831.282 923.012L831.499 923.463C826.635 925.803 821.715 928.084 816.747 930.305L816.543 929.848C811.615 932.051 806.639 934.196 801.623 936.281L801.815 936.742C796.823 938.817 791.792 940.833 786.728 942.789L786.548 942.323C781.505 944.271 776.43 946.16 771.33 947.99L771.499 948.461C766.4 950.29 761.276 952.06 756.134 953.77L755.976 953.296C750.834 955.006 745.673 956.656 740.502 958.246L740.649 958.724C735.46 960.319 730.26 961.853 725.057 963.326L724.921 962.845C719.697 964.324 714.47 965.74 709.246 967.094L709.372 967.578C704.109 968.942 698.85 970.242 693.603 971.479L693.489 970.992C688.19 972.241 682.903 973.424 677.636 974.541L677.74 975.03C672.4 976.162 667.081 977.227 661.79 978.223L661.697 977.731C656.329 978.742 650.991 979.682 645.69 980.551L645.771 981.044C640.369 981.929 635.006 982.741 629.691 983.478L629.622 982.983C624.195 983.736 618.819 984.41 613.501 985.007L613.557 985.504C608.098 986.116 602.701 986.646 597.376 987.093L597.335 986.594C591.852 987.054 586.446 987.425 581.13 987.707L581.157 988.206C575.641 988.499 570.221 988.695 564.909 988.794L564.899 988.294C562.192 988.345 559.512 988.37 556.862 988.37C554.168 988.37 551.498 988.317 548.852 988.21L548.832 988.71C543.441 988.492 538.148 988.057 532.955 987.411L533.016 986.915C527.691 986.253 522.47 985.37 517.353 984.275L517.248 984.764C512.003 983.642 506.866 982.298 501.837 980.743L501.985 980.265C496.891 978.69 491.908 976.897 487.035 974.897L486.845 975.36C481.91 973.334 477.088 971.097 472.378 968.66L472.608 968.216C467.899 965.779 463.302 963.14 458.817 960.312L458.55 960.734C454.065 957.906 449.691 954.887 445.429 951.691L445.729 951.291C441.505 948.122 437.389 944.779 433.383 941.269L433.053 941.645C429.076 938.162 425.206 934.516 421.442 930.719L421.797 930.367C418.086 926.622 414.477 922.73 410.972 918.699L410.595 919.027C407.129 915.042 403.763 910.922 400.498 906.677L400.894 906.372C397.683 902.199 394.569 897.904 391.551 893.497L391.139 893.78C388.157 889.426 385.269 884.963 382.475 880.401L382.901 880.14C380.148 875.645 377.486 871.053 374.914 866.372L374.476 866.613C371.932 861.983 369.476 857.268 367.109 852.474L367.557 852.253C365.22 847.52 362.968 842.71 360.802 837.833L360.345 838.036C358.198 833.202 356.134 828.301 354.154 823.341L354.619 823.155C352.659 818.245 350.78 813.277 348.983 808.258L348.513 808.426C346.727 803.439 345.022 798.402 343.396 793.323L343.872 793.17C342.258 788.127 340.723 783.041 339.266 777.92L338.785 778.057C337.333 772.954 335.959 767.817 334.662 762.652L335.147 762.531C333.855 757.386 332.64 752.213 331.501 747.021L331.013 747.128C329.874 741.937 328.813 736.726 327.827 731.502L328.318 731.41C327.332 726.188 326.423 720.953 325.589 715.712L325.095 715.79C324.259 710.533 323.498 705.269 322.813 700.007L323.309 699.943C322.622 694.663 322.011 689.385 321.476 684.115L320.978 684.165C320.44 678.858 319.978 673.56 319.592 668.278L320.091 668.241C319.702 662.921 319.392 657.616 319.158 652.335L318.659 652.357C318.422 647.017 318.265 641.701 318.186 636.416L318.686 636.409C318.647 633.753 318.627 631.106 318.627 628.468C318.627 625.76 318.684 623.042 318.797 620.316L318.298 620.296C318.522 614.879 318.968 609.428 319.624 603.953L320.121 604.012C320.765 598.646 321.612 593.254 322.655 587.846L322.164 587.752C323.189 582.434 324.403 577.1 325.797 571.759L326.281 571.885C327.646 566.655 329.184 561.416 330.888 556.176L330.413 556.021C332.088 550.869 333.924 545.717 335.912 540.57L336.378 540.75C338.328 535.702 340.425 530.659 342.663 525.628L342.206 525.425C344.411 520.469 346.751 515.524 349.221 510.598L349.668 510.822C352.097 505.976 354.652 501.147 357.327 496.34L356.89 496.097C359.531 491.349 362.289 486.624 365.157 481.927L365.584 482.187C368.414 477.552 371.352 472.943 374.392 468.367L373.976 468.09C376.987 463.557 380.098 459.055 383.304 454.591L383.71 454.882C386.883 450.463 390.149 446.079 393.502 441.737L393.106 441.431C396.437 437.117 399.854 432.844 403.351 428.617L403.737 428.935C407.208 424.739 410.759 420.589 414.384 416.487L414.009 416.156C417.623 412.068 421.311 408.028 425.067 404.043L425.431 404.386C429.174 400.416 432.985 396.499 436.859 392.64L436.506 392.286C440.38 388.428 444.317 384.629 448.311 380.893L448.653 381.259C452.645 377.525 456.695 373.855 460.798 370.253L460.468 369.877C464.582 366.265 468.749 362.721 472.964 359.251L473.282 359.637C477.506 356.158 481.779 352.753 486.095 349.426L485.789 349.03C490.13 345.684 494.514 342.417 498.937 339.234L499.229 339.639C503.68 336.436 508.17 333.317 512.693 330.289L512.415 329.873C516.98 326.817 521.579 323.851 526.208 320.983L526.471 321.408C531.139 318.514 535.837 315.719 540.557 313.028L540.31 312.594C545.09 309.869 549.894 307.25 554.716 304.742L554.947 305.186C559.826 302.649 564.724 300.227 569.635 297.924L569.423 297.471C574.411 295.132 579.413 292.916 584.422 290.83L584.614 291.292C589.697 289.175 594.786 287.191 599.876 285.348L599.706 284.878C604.893 282.998 610.081 281.264 615.262 279.681L615.409 280.159C620.679 278.549 625.943 277.096 631.193 275.806L631.073 275.321C636.436 274.003 641.785 272.857 647.111 271.888L647.2 272.379C652.624 271.393 658.023 270.591 663.39 269.982L663.334 269.485C668.82 268.862 674.272 268.44 679.683 268.227L679.703 268.726C682.43 268.619 685.146 268.565 687.85 268.565C690.457 268.565 693.059 268.641 695.657 268.792L695.686 268.293C700.89 268.595 706.073 269.196 711.231 270.08L711.147 270.573C716.243 271.447 721.316 272.6 726.362 274.017L726.497 273.536C731.476 274.934 736.428 276.59 741.348 278.489L741.168 278.955C745.969 280.808 750.741 282.895 755.481 285.202L755.7 284.752C760.336 287.009 764.94 289.476 769.508 292.143L769.256 292.574C773.699 295.167 778.109 297.949 782.482 300.909L782.763 300.495C787.035 303.386 791.272 306.447 795.471 309.668L795.167 310.065C799.257 313.202 803.312 316.491 807.329 319.923L807.654 319.543C811.585 322.903 815.48 326.399 819.335 330.022L818.992 330.387C822.75 333.92 826.471 337.574 830.153 341.343L830.51 340.994C834.119 344.689 837.69 348.493 841.22 352.398L840.849 352.734C844.315 356.568 847.742 360.501 851.128 364.526L851.511 364.204C854.849 368.172 858.147 372.228 861.403 376.365L861.01 376.675C864.22 380.752 867.388 384.91 870.514 389.14L870.916 388.843C874.002 393.02 877.047 397.267 880.048 401.58L879.638 401.865C882.6 406.122 885.521 410.443 888.398 414.821L888.816 414.547C891.672 418.894 894.485 423.297 897.254 427.752L896.829 428.016C899.576 432.437 902.28 436.908 904.937 441.423L905.368 441.169C908.011 445.661 910.609 450.197 913.16 454.771L912.723 455.014C915.26 459.563 917.75 464.15 920.192 468.769L920.634 468.536C923.074 473.151 925.466 477.798 927.807 482.471L927.36 482.695C929.699 487.363 931.988 492.057 934.226 496.772L934.677 496.558C936.918 501.28 939.108 506.023 941.244 510.781L940.788 510.986C942.931 515.759 945.02 520.548 947.054 525.346L947.514 525.151C949.56 529.975 951.549 534.81 953.481 539.648L953.017 539.834C954.959 544.697 956.843 549.565 958.667 554.432L959.135 554.256C960.975 559.165 962.754 564.071 964.471 568.971L963.999 569.136C965.738 574.098 967.412 579.053 969.021 583.993L969.497 583.838C971.127 588.844 972.689 593.836 974.182 598.807L973.703 598.951C975.216 603.99 976.658 609.008 978.026 613.998L978.508 613.866C979.901 618.944 981.218 623.994 982.456 629.007L981.971 629.127C983.234 634.243 984.417 639.321 985.516 644.354L986.004 644.248C987.135 649.427 988.178 654.559 989.129 659.636L988.638 659.728C989.615 664.94 990.497 670.093 991.28 675.179L991.774 675.103C992.583 680.358 993.287 685.541 993.884 690.642L993.387 690.7C994.005 695.987 994.508 701.184 994.891 706.283L995.39 706.246C995.79 711.575 996.061 716.796 996.199 721.897L995.699 721.911C995.769 724.517 995.804 727.092 995.804 729.633Z" stroke="#F06500" stroke-dasharray="16 16"/>
<path d="M968.677 700.569C968.677 703.299 968.6 706.011 968.446 708.703L968.945 708.732C968.634 714.184 968.012 719.559 967.096 724.856L966.603 724.771C965.68 730.104 964.457 735.357 962.949 740.53L963.429 740.67C961.916 745.86 960.118 750.968 958.05 755.994L957.587 755.804C955.544 760.769 953.236 765.654 950.679 770.458L951.121 770.693C948.596 775.435 945.83 780.097 942.836 784.679L942.417 784.406C939.493 788.881 936.35 793.281 933.003 797.602L933.398 797.908C930.119 802.141 926.645 806.3 922.988 810.382L922.615 810.048C919.05 814.028 915.31 817.937 911.407 821.772L911.758 822.129C907.937 825.884 903.961 829.57 899.84 833.184L899.511 832.808C895.488 836.337 891.328 839.798 887.04 843.191L887.35 843.583C883.146 846.909 878.821 850.17 874.383 853.364L874.091 852.958C869.742 856.087 865.285 859.154 860.729 862.155L861.004 862.573C856.519 865.528 851.938 868.42 847.27 871.249L847.011 870.821C842.417 873.606 837.738 876.329 832.984 878.99L833.228 879.426C828.529 882.056 823.757 884.626 818.918 887.134L818.688 886.69C813.906 889.169 809.059 891.589 804.155 893.948L804.372 894.398C799.508 896.738 794.588 899.019 789.62 901.24L789.416 900.784C784.488 902.987 779.512 905.131 774.496 907.216L774.688 907.678C769.696 909.752 764.665 911.768 759.601 913.724L759.421 913.258C754.378 915.206 749.303 917.096 744.203 918.925L744.372 919.396C739.273 921.226 734.149 922.996 729.007 924.706L728.849 924.231C723.707 925.942 718.546 927.592 713.375 929.181L713.522 929.659C708.333 931.255 703.133 932.789 697.93 934.261L697.794 933.78C692.57 935.259 687.343 936.675 682.119 938.029L682.245 938.513C676.982 939.877 671.723 941.178 666.477 942.414L666.362 941.927C661.063 943.176 655.776 944.359 650.509 945.476L650.613 945.965C645.273 947.097 639.954 948.162 634.663 949.158L634.57 948.667C629.202 949.677 623.864 950.617 618.563 951.486L618.644 951.979C613.242 952.865 607.879 953.676 602.564 954.413L602.495 953.918C597.068 954.671 591.692 955.346 586.374 955.942L586.43 956.439C580.971 957.052 575.574 957.581 570.249 958.028L570.208 957.53C564.725 957.989 559.32 958.361 554.003 958.642L554.03 959.142C548.514 959.434 543.094 959.63 537.782 959.73L537.772 959.23C535.065 959.28 532.385 959.306 529.735 959.306C527.041 959.306 524.371 959.252 521.725 959.145L521.705 959.645C516.314 959.428 511.021 958.992 505.828 958.346L505.889 957.85C500.564 957.188 495.343 956.305 490.226 955.21L490.121 955.699C484.876 954.577 479.74 953.233 474.711 951.678L474.858 951.201C469.764 949.625 464.781 947.832 459.908 945.832L459.718 946.295C454.783 944.27 449.961 942.033 445.251 939.595L445.481 939.151C440.772 936.714 436.175 934.076 431.69 931.247L431.423 931.67C426.938 928.841 422.564 925.823 418.302 922.626L418.602 922.226C414.378 919.058 410.262 915.714 406.256 912.204L405.926 912.581C401.949 909.097 398.079 905.452 394.315 901.654L394.67 901.302C390.959 897.558 387.35 893.665 383.845 889.634L383.468 889.963C380.002 885.977 376.636 881.857 373.371 877.613L373.767 877.308C370.556 873.134 367.442 868.839 364.424 864.432L364.012 864.715C361.03 860.361 358.142 855.899 355.348 851.337L355.774 851.076C353.021 846.58 350.359 841.988 347.787 837.307L347.349 837.548C344.805 832.919 342.349 828.203 339.982 823.409L340.43 823.188C338.093 818.455 335.841 813.646 333.675 808.768L333.218 808.971C331.071 804.137 329.007 799.236 327.028 794.276L327.492 794.091C325.532 789.181 323.653 784.212 321.856 779.193L321.386 779.362C319.6 774.374 317.895 769.338 316.269 764.258L316.745 764.106C315.131 759.062 313.596 753.976 312.139 748.856L311.658 748.993C310.206 743.89 308.832 738.752 307.535 733.588L308.02 733.466C306.728 728.321 305.513 723.149 304.374 717.956L303.886 718.063C302.748 712.872 301.686 707.661 300.7 702.438L301.191 702.345C300.205 697.123 299.296 691.888 298.462 686.647L297.968 686.726C297.132 681.468 296.371 676.205 295.686 670.942L296.182 670.878C295.495 665.598 294.884 660.32 294.349 655.05L293.852 655.101C293.313 649.794 292.851 644.495 292.465 639.213L292.964 639.177C292.575 633.856 292.265 628.551 292.031 623.27L291.532 623.293C291.296 617.952 291.138 612.636 291.059 607.352L291.559 607.344C291.52 604.689 291.5 602.041 291.5 599.403C291.5 596.695 291.557 593.978 291.67 591.252L291.171 591.231C291.395 585.814 291.841 580.363 292.497 574.888L292.994 574.948C293.638 569.581 294.485 564.19 295.528 558.782L295.037 558.687C296.062 553.369 297.276 548.036 298.67 542.694L299.154 542.821C300.519 537.59 302.057 532.351 303.761 527.111L303.286 526.957C304.961 521.805 306.797 516.652 308.785 511.505L309.251 511.685C311.201 506.637 313.299 501.594 315.536 496.563L315.079 496.36C317.284 491.404 319.624 486.46 322.094 481.533L322.541 481.757C324.97 476.911 327.525 472.082 330.2 467.275L329.763 467.032C332.404 462.285 335.162 457.559 338.03 452.862L338.457 453.123C341.287 448.487 344.225 443.879 347.265 439.302L346.849 439.026C349.86 434.492 352.971 429.991 356.177 425.526L356.583 425.818C359.756 421.398 363.022 417.014 366.375 412.672L365.979 412.366C369.31 408.053 372.727 403.779 376.225 399.552L376.61 399.871C380.081 395.675 383.632 391.524 387.257 387.423L386.882 387.092C390.496 383.003 394.184 378.964 397.94 374.979L398.304 375.322C402.047 371.351 405.858 367.434 409.732 363.576L409.379 363.221C413.253 359.364 417.19 355.565 421.184 351.829L421.526 352.194C425.518 348.461 429.568 344.79 433.671 341.188L433.341 340.812C437.455 337.201 441.622 333.657 445.837 330.186L446.155 330.572C450.379 327.094 454.652 323.688 458.968 320.361L458.662 319.965C463.003 316.619 467.388 313.352 471.81 310.169L472.102 310.575C476.553 307.371 481.043 304.253 485.566 301.224L485.288 300.809C489.853 297.752 494.452 294.787 499.081 291.918L499.344 292.343C504.012 289.45 508.71 286.655 513.43 283.963L513.183 283.529C517.963 280.804 522.767 278.185 527.589 275.678L527.82 276.121C532.699 273.584 537.597 271.162 542.508 268.859L542.296 268.407C547.284 266.067 552.286 263.852 557.295 261.766L557.487 262.227C562.57 260.11 567.659 258.127 572.749 256.283L572.579 255.813C577.766 253.934 582.954 252.2 588.135 250.617L588.282 251.095C593.553 249.485 598.816 248.031 604.066 246.742L603.946 246.256C609.309 244.939 614.658 243.792 619.984 242.823L620.073 243.315C625.497 242.328 630.896 241.526 636.263 240.917L636.207 240.42C641.693 239.797 647.145 239.375 652.556 239.162L652.576 239.662C655.303 239.554 658.019 239.5 660.723 239.5C663.33 239.5 665.932 239.576 668.53 239.727L668.559 239.228C673.763 239.53 678.946 240.131 684.104 241.016L684.02 241.509C689.116 242.383 694.189 243.535 699.235 244.952L699.37 244.471C704.349 245.869 709.301 247.525 714.221 249.424L714.041 249.891C718.842 251.744 723.615 253.83 728.354 256.137L728.573 255.687C733.209 257.944 737.813 260.412 742.381 263.078L742.129 263.51C746.572 266.103 750.982 268.884 755.355 271.844L755.636 271.43C759.908 274.322 764.145 277.383 768.344 280.603L768.04 281C772.13 284.137 776.185 287.426 780.202 290.859L780.527 290.479C784.458 293.838 788.353 297.334 792.208 300.958L791.865 301.322C795.624 304.855 799.344 308.51 803.026 312.278L803.383 311.929C806.992 315.624 810.563 319.428 814.093 323.334L813.722 323.669C817.188 327.504 820.615 331.437 824.001 335.461L824.384 335.139C827.722 339.107 831.02 343.163 834.276 347.301L833.884 347.61C837.093 351.688 840.261 355.845 843.387 360.075L843.789 359.778C846.875 363.955 849.92 368.202 852.921 372.515L852.511 372.8C855.473 377.058 858.394 381.378 861.271 385.756L861.689 385.482C864.545 389.829 867.358 394.233 870.127 398.687L869.702 398.951C872.45 403.372 875.153 407.843 877.81 412.358L878.241 412.105C880.884 416.597 883.482 421.132 886.033 425.706L885.596 425.95C888.133 430.499 890.623 435.086 893.065 439.705L893.507 439.471C895.947 444.086 898.339 448.733 900.68 453.407L900.233 453.631C902.572 458.298 904.861 462.992 907.099 467.707L907.55 467.493C909.791 472.215 911.981 476.958 914.117 481.716L913.661 481.921C915.804 486.694 917.893 491.483 919.927 496.281L920.388 496.086C922.433 500.911 924.422 505.745 926.354 510.583L925.89 510.769C927.832 515.633 929.716 520.501 931.54 525.367L932.008 525.192C933.848 530.1 935.627 535.007 937.344 539.906L936.872 540.071C938.611 545.033 940.286 549.988 941.894 554.929L942.37 554.774C944 559.78 945.562 564.771 947.055 569.742L946.576 569.886C948.089 574.925 949.531 579.943 950.899 584.933L951.381 584.801C952.774 589.879 954.091 594.929 955.329 599.943L954.844 600.062C956.108 605.178 957.29 610.257 958.389 615.29L958.877 615.183C960.008 620.363 961.051 625.495 962.002 630.571L961.511 630.663C962.488 635.875 963.37 641.029 964.153 646.114L964.647 646.038C965.456 651.293 966.16 656.476 966.757 661.578L966.26 661.636C966.878 666.922 967.381 672.12 967.764 677.218L968.263 677.181C968.663 682.51 968.934 687.731 969.072 692.833L968.572 692.846C968.642 695.452 968.677 698.027 968.677 700.569Z" stroke="#F06500" stroke-dasharray="16 16"/>
<g filter="url(#filter0_f_20407_1149)">
<circle cx="646" cy="646" r="146" fill="#FFA800"/>
</g>
<defs>
<filter id="filter0_f_20407_1149" x="0" y="0" width="1292" height="1292" filterUnits="userSpaceOnUse" color-interpolation-filters="sRGB">
<feFlood flood-opacity="0" result="BackgroundImageFix"/>
<feBlend mode="normal" in="SourceGraphic" in2="BackgroundImageFix" result="shape"/>
<feGaussianBlur stdDeviation="250" result="effect1_foregroundBlur_20407_1149"/>
</filter>
</defs>
</svg>
