<svg width="361" height="361" viewBox="0 0 361 361" fill="none" xmlns="http://www.w3.org/2000/svg">
<path d="M180.5 0C141.298 -4.67474e-07 103.162 12.7624 71.8572 36.3578C40.5519 59.9532 17.7792 93.0988 6.98177 130.784L57.0225 145.122C64.7061 118.304 80.9114 94.7176 103.189 77.9268C125.466 61.1361 152.604 52.0542 180.5 52.0542V0Z" fill="#F06500"/>
<path d="M6.82076 131.35C-1.68232 161.396 -2.24495 193.135 5.18786 223.464C12.6207 253.793 27.7946 281.675 49.2269 304.386L87.0847 268.658C71.8332 252.497 61.0352 232.656 55.746 211.074C50.4567 189.491 50.8571 166.906 56.908 145.524L6.82076 131.35Z" fill="#8B35E2"/>
<path d="M48.3089 303.405C76.9311 334.19 115.4 354.02 157.08 359.474L163.834 307.86C134.174 303.979 106.799 289.868 86.4314 267.961L48.3089 303.405Z" fill="#00B2FF"/>
<path d="M180.5 0C217.867 4.45597e-07 254.313 11.5971 284.809 33.1911C315.305 54.7851 338.347 85.3114 350.756 120.558L301.656 137.844C292.826 112.763 276.428 91.0399 254.727 75.6734C233.026 60.3069 207.091 52.0542 180.5 52.0542L180.5 0Z" fill="#00E396"/>
<path d="M350.031 118.536C358.168 140.799 361.841 164.447 360.839 188.13C359.837 211.812 354.18 235.065 344.191 256.562C334.203 278.058 320.078 297.376 302.624 313.414C285.169 329.451 264.727 341.894 242.464 350.031L224.594 301.14C240.437 295.35 254.984 286.495 267.405 275.083C279.825 263.67 289.877 249.923 296.985 234.626C304.093 219.329 308.118 202.782 308.831 185.929C309.544 169.077 306.931 152.249 301.14 136.406L350.031 118.536Z" fill="#FF4560"/>
<path d="M242.338 350.077C215.063 360.023 185.792 363.243 157.007 359.465L163.782 307.853C184.266 310.542 205.095 308.25 224.505 301.173L242.338 350.077Z" fill="#FFA800"/>
<g filter="url(#filter0_d_2_10956)">
<path d="M256.708 51.2586C256.768 50.0586 257.188 49.1346 257.968 48.4866C258.76 47.8266 259.798 47.4966 261.082 47.4966C261.958 47.4966 262.708 47.6526 263.332 47.9646C263.956 48.2646 264.424 48.6786 264.736 49.2066C265.06 49.7226 265.222 50.3106 265.222 50.9706C265.222 51.7266 265.024 52.3686 264.628 52.8966C264.244 53.4126 263.782 53.7606 263.242 53.9406V54.0126C263.938 54.2286 264.478 54.6126 264.862 55.1646C265.258 55.7166 265.456 56.4246 265.456 57.2886C265.456 58.0086 265.288 58.6506 264.952 59.2146C264.628 59.7786 264.142 60.2226 263.494 60.5466C262.858 60.8586 262.09 61.0146 261.19 61.0146C259.834 61.0146 258.73 60.6726 257.878 59.9886C257.026 59.3046 256.576 58.2966 256.528 56.9646H258.976C259 57.5526 259.198 58.0266 259.57 58.3866C259.954 58.7346 260.476 58.9086 261.136 58.9086C261.748 58.9086 262.216 58.7406 262.54 58.4046C262.876 58.0566 263.044 57.6126 263.044 57.0726C263.044 56.3526 262.816 55.8366 262.36 55.5246C261.904 55.2126 261.196 55.0566 260.236 55.0566H259.714V52.9866H260.236C261.94 52.9866 262.792 52.4166 262.792 51.2766C262.792 50.7606 262.636 50.3586 262.324 50.0706C262.024 49.7826 261.586 49.6386 261.01 49.6386C260.446 49.6386 260.008 49.7946 259.696 50.1066C259.396 50.4066 259.222 50.7906 259.174 51.2586H256.708ZM276.267 49.9806H270.435V53.0586C270.687 52.7466 271.047 52.4946 271.515 52.3026C271.983 52.0986 272.481 51.9966 273.009 51.9966C273.969 51.9966 274.755 52.2066 275.367 52.6266C275.979 53.0466 276.423 53.5866 276.699 54.2466C276.975 54.8946 277.113 55.5906 277.113 56.3346C277.113 57.7146 276.717 58.8246 275.925 59.6646C275.145 60.5046 274.029 60.9246 272.577 60.9246C271.209 60.9246 270.117 60.5826 269.301 59.8986C268.485 59.2146 268.023 58.3206 267.915 57.2166H270.363C270.471 57.6966 270.711 58.0806 271.083 58.3686C271.467 58.6566 271.953 58.8006 272.541 58.8006C273.249 58.8006 273.783 58.5786 274.143 58.1346C274.503 57.6906 274.683 57.1026 274.683 56.3706C274.683 55.6266 274.497 55.0626 274.125 54.6786C273.765 54.2826 273.231 54.0846 272.523 54.0846C272.019 54.0846 271.599 54.2106 271.263 54.4626C270.927 54.7146 270.687 55.0506 270.543 55.4706H268.131V47.7666H276.267V49.9806ZM278.743 51.0246C278.743 50.1126 279.007 49.3986 279.535 48.8826C280.075 48.3666 280.765 48.1086 281.605 48.1086C282.445 48.1086 283.129 48.3666 283.657 48.8826C284.197 49.3986 284.467 50.1126 284.467 51.0246C284.467 51.9486 284.197 52.6686 283.657 53.1846C283.129 53.7006 282.445 53.9586 281.605 53.9586C280.765 53.9586 280.075 53.7006 279.535 53.1846C279.007 52.6686 278.743 51.9486 278.743 51.0246ZM290.299 48.3246L283.225 60.9246H280.777L287.833 48.3246H290.299ZM281.587 49.6206C280.927 49.6206 280.597 50.0886 280.597 51.0246C280.597 51.9726 280.927 52.4466 281.587 52.4466C281.911 52.4466 282.163 52.3326 282.343 52.1046C282.523 51.8646 282.613 51.5046 282.613 51.0246C282.613 50.0886 282.271 49.6206 281.587 49.6206ZM286.645 58.2066C286.645 57.2826 286.909 56.5686 287.437 56.0646C287.977 55.5486 288.667 55.2906 289.507 55.2906C290.347 55.2906 291.025 55.5486 291.541 56.0646C292.069 56.5686 292.333 57.2826 292.333 58.2066C292.333 59.1306 292.069 59.8506 291.541 60.3666C291.025 60.8826 290.347 61.1406 289.507 61.1406C288.655 61.1406 287.965 60.8826 287.437 60.3666C286.909 59.8506 286.645 59.1306 286.645 58.2066ZM289.489 56.8026C288.805 56.8026 288.463 57.2706 288.463 58.2066C288.463 59.1546 288.805 59.6286 289.489 59.6286C290.161 59.6286 290.497 59.1546 290.497 58.2066C290.497 57.2706 290.161 56.8026 289.489 56.8026Z" fill="white"/>
</g>
<g filter="url(#filter1_d_2_10956)">
<path d="M303.341 250.902V248.922L309.227 240.498H312.161V248.706H313.745V250.902H312.161V253.458H309.641V250.902H303.341ZM309.803 243.198L306.113 248.706H309.803V243.198ZM317.546 246.51C316.346 245.886 315.746 244.92 315.746 243.612C315.746 242.964 315.908 242.376 316.232 241.848C316.568 241.308 317.066 240.882 317.726 240.57C318.398 240.246 319.214 240.084 320.174 240.084C321.134 240.084 321.944 240.246 322.604 240.57C323.276 240.882 323.774 241.308 324.098 241.848C324.434 242.376 324.602 242.964 324.602 243.612C324.602 244.272 324.44 244.854 324.116 245.358C323.792 245.85 323.36 246.234 322.82 246.51C323.48 246.798 323.996 247.218 324.368 247.77C324.74 248.322 324.926 248.976 324.926 249.732C324.926 250.548 324.716 251.262 324.296 251.874C323.888 252.474 323.324 252.936 322.604 253.26C321.884 253.584 321.074 253.746 320.174 253.746C319.274 253.746 318.464 253.584 317.744 253.26C317.036 252.936 316.472 252.474 316.052 251.874C315.644 251.262 315.44 250.548 315.44 249.732C315.44 248.976 315.626 248.322 315.998 247.77C316.37 247.206 316.886 246.786 317.546 246.51ZM322.154 243.972C322.154 243.384 321.974 242.928 321.614 242.604C321.266 242.28 320.786 242.118 320.174 242.118C319.574 242.118 319.094 242.28 318.734 242.604C318.386 242.928 318.212 243.39 318.212 243.99C318.212 244.53 318.392 244.962 318.752 245.286C319.124 245.61 319.598 245.772 320.174 245.772C320.75 245.772 321.224 245.61 321.596 245.286C321.968 244.95 322.154 244.512 322.154 243.972ZM320.174 247.608C319.49 247.608 318.932 247.782 318.5 248.13C318.08 248.478 317.87 248.976 317.87 249.624C317.87 250.224 318.074 250.716 318.482 251.1C318.902 251.472 319.466 251.658 320.174 251.658C320.882 251.658 321.44 251.466 321.848 251.082C322.256 250.698 322.46 250.212 322.46 249.624C322.46 248.988 322.25 248.496 321.83 248.148C321.41 247.788 320.858 247.608 320.174 247.608ZM326.628 243.558C326.628 242.646 326.892 241.932 327.42 241.416C327.96 240.9 328.65 240.642 329.49 240.642C330.33 240.642 331.014 240.9 331.542 241.416C332.082 241.932 332.352 242.646 332.352 243.558C332.352 244.482 332.082 245.202 331.542 245.718C331.014 246.234 330.33 246.492 329.49 246.492C328.65 246.492 327.96 246.234 327.42 245.718C326.892 245.202 326.628 244.482 326.628 243.558ZM338.184 240.858L331.11 253.458H328.662L335.718 240.858H338.184ZM329.472 242.154C328.812 242.154 328.482 242.622 328.482 243.558C328.482 244.506 328.812 244.98 329.472 244.98C329.796 244.98 330.048 244.866 330.228 244.638C330.408 244.398 330.498 244.038 330.498 243.558C330.498 242.622 330.156 242.154 329.472 242.154ZM334.53 250.74C334.53 249.816 334.794 249.102 335.322 248.598C335.862 248.082 336.552 247.824 337.392 247.824C338.232 247.824 338.91 248.082 339.426 248.598C339.954 249.102 340.218 249.816 340.218 250.74C340.218 251.664 339.954 252.384 339.426 252.9C338.91 253.416 338.232 253.674 337.392 253.674C336.54 253.674 335.85 253.416 335.322 252.9C334.794 252.384 334.53 251.664 334.53 250.74ZM337.374 249.336C336.69 249.336 336.348 249.804 336.348 250.74C336.348 251.688 336.69 252.162 337.374 252.162C338.046 252.162 338.382 251.688 338.382 250.74C338.382 249.804 338.046 249.336 337.374 249.336Z" fill="white"/>
</g>
<g filter="url(#filter2_d_2_10956)">
<path d="M183.051 338.056C184.203 337.096 185.121 336.298 185.805 335.662C186.489 335.014 187.059 334.342 187.515 333.646C187.971 332.95 188.199 332.266 188.199 331.594C188.199 330.982 188.055 330.502 187.767 330.154C187.479 329.806 187.035 329.632 186.435 329.632C185.835 329.632 185.373 329.836 185.049 330.244C184.725 330.64 184.557 331.186 184.545 331.882H182.097C182.145 330.442 182.571 329.35 183.375 328.606C184.191 327.862 185.223 327.49 186.471 327.49C187.839 327.49 188.889 327.856 189.621 328.588C190.353 329.308 190.719 330.262 190.719 331.45C190.719 332.386 190.467 333.28 189.963 334.132C189.459 334.984 188.883 335.728 188.235 336.364C187.587 336.988 186.741 337.744 185.697 338.632H191.007V340.72H182.115V338.848L183.051 338.056ZM192.595 334.168C192.595 332.092 192.967 330.466 193.711 329.29C194.467 328.114 195.715 327.526 197.455 327.526C199.195 327.526 200.437 328.114 201.181 329.29C201.937 330.466 202.315 332.092 202.315 334.168C202.315 336.256 201.937 337.894 201.181 339.082C200.437 340.27 199.195 340.864 197.455 340.864C195.715 340.864 194.467 340.27 193.711 339.082C192.967 337.894 192.595 336.256 192.595 334.168ZM199.831 334.168C199.831 333.28 199.771 332.536 199.651 331.936C199.543 331.324 199.315 330.826 198.967 330.442C198.631 330.058 198.127 329.866 197.455 329.866C196.783 329.866 196.273 330.058 195.925 330.442C195.589 330.826 195.361 331.324 195.241 331.936C195.133 332.536 195.079 333.28 195.079 334.168C195.079 335.08 195.133 335.848 195.241 336.472C195.349 337.084 195.577 337.582 195.925 337.966C196.273 338.338 196.783 338.524 197.455 338.524C198.127 338.524 198.637 338.338 198.985 337.966C199.333 337.582 199.561 337.084 199.669 336.472C199.777 335.848 199.831 335.08 199.831 334.168ZM203.944 331C203.944 330.088 204.208 329.374 204.736 328.858C205.276 328.342 205.966 328.084 206.806 328.084C207.646 328.084 208.33 328.342 208.858 328.858C209.398 329.374 209.668 330.088 209.668 331C209.668 331.924 209.398 332.644 208.858 333.16C208.33 333.676 207.646 333.934 206.806 333.934C205.966 333.934 205.276 333.676 204.736 333.16C204.208 332.644 203.944 331.924 203.944 331ZM215.5 328.3L208.426 340.9H205.978L213.034 328.3H215.5ZM206.788 329.596C206.128 329.596 205.798 330.064 205.798 331C205.798 331.948 206.128 332.422 206.788 332.422C207.112 332.422 207.364 332.308 207.544 332.08C207.724 331.84 207.814 331.48 207.814 331C207.814 330.064 207.472 329.596 206.788 329.596ZM211.846 338.182C211.846 337.258 212.11 336.544 212.638 336.04C213.178 335.524 213.868 335.266 214.708 335.266C215.548 335.266 216.226 335.524 216.742 336.04C217.27 336.544 217.534 337.258 217.534 338.182C217.534 339.106 217.27 339.826 216.742 340.342C216.226 340.858 215.548 341.116 214.708 341.116C213.856 341.116 213.166 340.858 212.638 340.342C212.11 339.826 211.846 339.106 211.846 338.182ZM214.69 336.778C214.006 336.778 213.664 337.246 213.664 338.182C213.664 339.13 214.006 339.604 214.69 339.604C215.362 339.604 215.698 339.13 215.698 338.182C215.698 337.246 215.362 336.778 214.69 336.778Z" fill="white"/>
</g>
<g filter="url(#filter3_d_2_10956)">
<path d="M96.4465 319.605C97.5985 318.645 98.5165 317.847 99.2005 317.211C99.8845 316.563 100.455 315.891 100.911 315.195C101.367 314.499 101.595 313.815 101.595 313.143C101.595 312.531 101.451 312.051 101.163 311.703C100.875 311.355 100.431 311.181 99.8305 311.181C99.2305 311.181 98.7685 311.385 98.4445 311.793C98.1205 312.189 97.9525 312.735 97.9405 313.431H95.4925C95.5405 311.991 95.9665 310.899 96.7705 310.155C97.5865 309.411 98.6185 309.039 99.8665 309.039C101.235 309.039 102.285 309.405 103.017 310.137C103.749 310.857 104.115 311.811 104.115 312.999C104.115 313.935 103.863 314.829 103.359 315.681C102.855 316.533 102.279 317.277 101.631 317.913C100.983 318.537 100.137 319.293 99.0925 320.181H104.403V322.269H95.5105V320.397L96.4465 319.605ZM108.186 315.501C106.986 314.877 106.386 313.911 106.386 312.603C106.386 311.955 106.548 311.367 106.872 310.839C107.208 310.299 107.706 309.873 108.366 309.561C109.038 309.237 109.854 309.075 110.814 309.075C111.774 309.075 112.584 309.237 113.244 309.561C113.916 309.873 114.414 310.299 114.738 310.839C115.074 311.367 115.242 311.955 115.242 312.603C115.242 313.263 115.08 313.845 114.756 314.349C114.432 314.841 114 315.225 113.46 315.501C114.12 315.789 114.636 316.209 115.008 316.761C115.38 317.313 115.566 317.967 115.566 318.723C115.566 319.539 115.356 320.253 114.936 320.865C114.528 321.465 113.964 321.927 113.244 322.251C112.524 322.575 111.714 322.737 110.814 322.737C109.914 322.737 109.104 322.575 108.384 322.251C107.676 321.927 107.112 321.465 106.692 320.865C106.284 320.253 106.08 319.539 106.08 318.723C106.08 317.967 106.266 317.313 106.638 316.761C107.01 316.197 107.526 315.777 108.186 315.501ZM112.794 312.963C112.794 312.375 112.614 311.919 112.254 311.595C111.906 311.271 111.426 311.109 110.814 311.109C110.214 311.109 109.734 311.271 109.374 311.595C109.026 311.919 108.852 312.381 108.852 312.981C108.852 313.521 109.032 313.953 109.392 314.277C109.764 314.601 110.238 314.763 110.814 314.763C111.39 314.763 111.864 314.601 112.236 314.277C112.608 313.941 112.794 313.503 112.794 312.963ZM110.814 316.599C110.13 316.599 109.572 316.773 109.14 317.121C108.72 317.469 108.51 317.967 108.51 318.615C108.51 319.215 108.714 319.707 109.122 320.091C109.542 320.463 110.106 320.649 110.814 320.649C111.522 320.649 112.08 320.457 112.488 320.073C112.896 319.689 113.1 319.203 113.1 318.615C113.1 317.979 112.89 317.487 112.47 317.139C112.05 316.779 111.498 316.599 110.814 316.599ZM117.269 312.549C117.269 311.637 117.533 310.923 118.061 310.407C118.601 309.891 119.291 309.633 120.131 309.633C120.971 309.633 121.655 309.891 122.183 310.407C122.723 310.923 122.993 311.637 122.993 312.549C122.993 313.473 122.723 314.193 122.183 314.709C121.655 315.225 120.971 315.483 120.131 315.483C119.291 315.483 118.601 315.225 118.061 314.709C117.533 314.193 117.269 313.473 117.269 312.549ZM128.825 309.849L121.751 322.449H119.303L126.359 309.849H128.825ZM120.113 311.145C119.453 311.145 119.123 311.613 119.123 312.549C119.123 313.497 119.453 313.971 120.113 313.971C120.437 313.971 120.689 313.857 120.869 313.629C121.049 313.389 121.139 313.029 121.139 312.549C121.139 311.613 120.797 311.145 120.113 311.145ZM125.171 319.731C125.171 318.807 125.435 318.093 125.963 317.589C126.503 317.073 127.193 316.815 128.033 316.815C128.873 316.815 129.551 317.073 130.067 317.589C130.595 318.093 130.859 318.807 130.859 319.731C130.859 320.655 130.595 321.375 130.067 321.891C129.551 322.407 128.873 322.665 128.033 322.665C127.181 322.665 126.491 322.407 125.963 321.891C125.435 321.375 125.171 320.655 125.171 319.731ZM128.015 318.327C127.331 318.327 126.989 318.795 126.989 319.731C126.989 320.679 127.331 321.153 128.015 321.153C128.687 321.153 129.023 320.679 129.023 319.731C129.023 318.795 128.687 318.327 128.015 318.327Z" fill="white"/>
</g>
<g filter="url(#filter4_d_2_10956)">
<path d="M12.0391 209.296C12.0991 208.096 12.5191 207.172 13.2991 206.524C14.0911 205.864 15.1291 205.534 16.4131 205.534C17.2891 205.534 18.0391 205.69 18.6631 206.002C19.2871 206.302 19.7551 206.716 20.0671 207.244C20.3911 207.76 20.5531 208.348 20.5531 209.008C20.5531 209.764 20.3551 210.406 19.9591 210.934C19.5751 211.45 19.1131 211.798 18.5731 211.978V212.05C19.2691 212.266 19.8091 212.65 20.1931 213.202C20.5891 213.754 20.7871 214.462 20.7871 215.326C20.7871 216.046 20.6191 216.688 20.2831 217.252C19.9591 217.816 19.4731 218.26 18.8251 218.584C18.1891 218.896 17.4211 219.052 16.5211 219.052C15.1651 219.052 14.0611 218.71 13.2091 218.026C12.3571 217.342 11.9071 216.334 11.8591 215.002H14.3071C14.3311 215.59 14.5291 216.064 14.9011 216.424C15.2851 216.772 15.8071 216.946 16.4671 216.946C17.0791 216.946 17.5471 216.778 17.8711 216.442C18.2071 216.094 18.3751 215.65 18.3751 215.11C18.3751 214.39 18.1471 213.874 17.6911 213.562C17.2351 213.25 16.5271 213.094 15.5671 213.094H15.0451V211.024H15.5671C17.2711 211.024 18.1231 210.454 18.1231 209.314C18.1231 208.798 17.9671 208.396 17.6551 208.108C17.3551 207.82 16.9171 207.676 16.3411 207.676C15.7771 207.676 15.3391 207.832 15.0271 208.144C14.7271 208.444 14.5531 208.828 14.5051 209.296H12.0391ZM24.9745 212.014C23.7745 211.39 23.1745 210.424 23.1745 209.116C23.1745 208.468 23.3365 207.88 23.6605 207.352C23.9965 206.812 24.4945 206.386 25.1545 206.074C25.8265 205.75 26.6425 205.588 27.6025 205.588C28.5625 205.588 29.3725 205.75 30.0325 206.074C30.7045 206.386 31.2025 206.812 31.5265 207.352C31.8625 207.88 32.0305 208.468 32.0305 209.116C32.0305 209.776 31.8685 210.358 31.5445 210.862C31.2205 211.354 30.7885 211.738 30.2485 212.014C30.9085 212.302 31.4245 212.722 31.7965 213.274C32.1685 213.826 32.3545 214.48 32.3545 215.236C32.3545 216.052 32.1445 216.766 31.7245 217.378C31.3165 217.978 30.7525 218.44 30.0325 218.764C29.3125 219.088 28.5025 219.25 27.6025 219.25C26.7025 219.25 25.8925 219.088 25.1725 218.764C24.4645 218.44 23.9005 217.978 23.4805 217.378C23.0725 216.766 22.8685 216.052 22.8685 215.236C22.8685 214.48 23.0545 213.826 23.4265 213.274C23.7985 212.71 24.3145 212.29 24.9745 212.014ZM29.5825 209.476C29.5825 208.888 29.4025 208.432 29.0425 208.108C28.6945 207.784 28.2145 207.622 27.6025 207.622C27.0025 207.622 26.5225 207.784 26.1625 208.108C25.8145 208.432 25.6405 208.894 25.6405 209.494C25.6405 210.034 25.8205 210.466 26.1805 210.79C26.5525 211.114 27.0265 211.276 27.6025 211.276C28.1785 211.276 28.6525 211.114 29.0245 210.79C29.3965 210.454 29.5825 210.016 29.5825 209.476ZM27.6025 213.112C26.9185 213.112 26.3605 213.286 25.9285 213.634C25.5085 213.982 25.2985 214.48 25.2985 215.128C25.2985 215.728 25.5025 216.22 25.9105 216.604C26.3305 216.976 26.8945 217.162 27.6025 217.162C28.3105 217.162 28.8685 216.97 29.2765 216.586C29.6845 216.202 29.8885 215.716 29.8885 215.128C29.8885 214.492 29.6785 214 29.2585 213.652C28.8385 213.292 28.2865 213.112 27.6025 213.112ZM34.0569 209.062C34.0569 208.15 34.3209 207.436 34.8489 206.92C35.3889 206.404 36.0789 206.146 36.9189 206.146C37.7589 206.146 38.4429 206.404 38.9709 206.92C39.5109 207.436 39.7809 208.15 39.7809 209.062C39.7809 209.986 39.5109 210.706 38.9709 211.222C38.4429 211.738 37.7589 211.996 36.9189 211.996C36.0789 211.996 35.3889 211.738 34.8489 211.222C34.3209 210.706 34.0569 209.986 34.0569 209.062ZM45.6129 206.362L38.5389 218.962H36.0909L43.1469 206.362H45.6129ZM36.9009 207.658C36.2409 207.658 35.9109 208.126 35.9109 209.062C35.9109 210.01 36.2409 210.484 36.9009 210.484C37.2249 210.484 37.4769 210.37 37.6569 210.142C37.8369 209.902 37.9269 209.542 37.9269 209.062C37.9269 208.126 37.5849 207.658 36.9009 207.658ZM41.9589 216.244C41.9589 215.32 42.2229 214.606 42.7509 214.102C43.2909 213.586 43.9809 213.328 44.8209 213.328C45.6609 213.328 46.3389 213.586 46.8549 214.102C47.3829 214.606 47.6469 215.32 47.6469 216.244C47.6469 217.168 47.3829 217.888 46.8549 218.404C46.3389 218.92 45.6609 219.178 44.8209 219.178C43.9689 219.178 43.2789 218.92 42.7509 218.404C42.2229 217.888 41.9589 217.168 41.9589 216.244ZM44.8029 214.84C44.1189 214.84 43.7769 215.308 43.7769 216.244C43.7769 217.192 44.1189 217.666 44.8029 217.666C45.4749 217.666 45.8109 217.192 45.8109 216.244C45.8109 215.308 45.4749 214.84 44.8029 214.84Z" fill="white"/>
</g>
<g filter="url(#filter5_d_2_10956)">
<path d="M69.86 60.7751V58.7951L75.746 50.3711H78.68V58.5791H80.264V60.7751H78.68V63.3311H76.16V60.7751H69.86ZM76.322 53.0711L72.632 58.5791H76.322V53.0711ZM81.8684 56.5991C81.8684 54.5231 82.2404 52.8971 82.9844 51.7211C83.7404 50.5451 84.9884 49.9571 86.7284 49.9571C88.4684 49.9571 89.7104 50.5451 90.4544 51.7211C91.2104 52.8971 91.5884 54.5231 91.5884 56.5991C91.5884 58.6871 91.2104 60.3251 90.4544 61.5131C89.7104 62.7011 88.4684 63.2951 86.7284 63.2951C84.9884 63.2951 83.7404 62.7011 82.9844 61.5131C82.2404 60.3251 81.8684 58.6871 81.8684 56.5991ZM89.1044 56.5991C89.1044 55.7111 89.0444 54.9671 88.9244 54.3671C88.8164 53.7551 88.5884 53.2571 88.2404 52.8731C87.9044 52.4891 87.4004 52.2971 86.7284 52.2971C86.0564 52.2971 85.5464 52.4891 85.1984 52.8731C84.8624 53.2571 84.6344 53.7551 84.5144 54.3671C84.4064 54.9671 84.3524 55.7111 84.3524 56.5991C84.3524 57.5111 84.4064 58.2791 84.5144 58.9031C84.6224 59.5151 84.8504 60.0131 85.1984 60.3971C85.5464 60.7691 86.0564 60.9551 86.7284 60.9551C87.4004 60.9551 87.9104 60.7691 88.2584 60.3971C88.6064 60.0131 88.8344 59.5151 88.9424 58.9031C89.0504 58.2791 89.1044 57.5111 89.1044 56.5991ZM93.2171 53.4311C93.2171 52.5191 93.4811 51.8051 94.0091 51.2891C94.5491 50.7731 95.2391 50.5151 96.0791 50.5151C96.9191 50.5151 97.6031 50.7731 98.1311 51.2891C98.6711 51.8051 98.9411 52.5191 98.9411 53.4311C98.9411 54.3551 98.6711 55.0751 98.1311 55.5911C97.6031 56.1071 96.9191 56.3651 96.0791 56.3651C95.2391 56.3651 94.5491 56.1071 94.0091 55.5911C93.4811 55.0751 93.2171 54.3551 93.2171 53.4311ZM104.773 50.7311L97.6991 63.3311H95.2511L102.307 50.7311H104.773ZM96.0611 52.0271C95.4011 52.0271 95.0711 52.4951 95.0711 53.4311C95.0711 54.3791 95.4011 54.8531 96.0611 54.8531C96.3851 54.8531 96.6371 54.7391 96.8171 54.5111C96.9971 54.2711 97.0871 53.9111 97.0871 53.4311C97.0871 52.4951 96.7451 52.0271 96.0611 52.0271ZM101.119 60.6131C101.119 59.6891 101.383 58.9751 101.911 58.4711C102.451 57.9551 103.141 57.6971 103.981 57.6971C104.821 57.6971 105.499 57.9551 106.015 58.4711C106.543 58.9751 106.807 59.6891 106.807 60.6131C106.807 61.5371 106.543 62.2571 106.015 62.7731C105.499 63.2891 104.821 63.5471 103.981 63.5471C103.129 63.5471 102.439 63.2891 101.911 62.7731C101.383 62.2571 101.119 61.5371 101.119 60.6131ZM103.963 59.2091C103.279 59.2091 102.937 59.6771 102.937 60.6131C102.937 61.5611 103.279 62.0351 103.963 62.0351C104.635 62.0351 104.971 61.5611 104.971 60.6131C104.971 59.6771 104.635 59.2091 103.963 59.2091Z" fill="white"/>
</g>
<defs>
<filter id="filter0_d_2_10956" x="252.528" y="47.4966" width="43.8047" height="21.644" filterUnits="userSpaceOnUse" color-interpolation-filters="sRGB">
<feFlood flood-opacity="0" result="BackgroundImageFix"/>
<feColorMatrix in="SourceAlpha" type="matrix" values="0 0 0 0 0 0 0 0 0 0 0 0 0 0 0 0 0 0 127 0" result="hardAlpha"/>
<feOffset dy="4"/>
<feGaussianBlur stdDeviation="2"/>
<feComposite in2="hardAlpha" operator="out"/>
<feColorMatrix type="matrix" values="0 0 0 0 0 0 0 0 0 0 0 0 0 0 0 0 0 0 0.25 0"/>
<feBlend mode="normal" in2="BackgroundImageFix" result="effect1_dropShadow_2_10956"/>
<feBlend mode="normal" in="SourceGraphic" in2="effect1_dropShadow_2_10956" result="shape"/>
</filter>
<filter id="filter1_d_2_10956" x="299.342" y="240.084" width="44.876" height="21.6621" filterUnits="userSpaceOnUse" color-interpolation-filters="sRGB">
<feFlood flood-opacity="0" result="BackgroundImageFix"/>
<feColorMatrix in="SourceAlpha" type="matrix" values="0 0 0 0 0 0 0 0 0 0 0 0 0 0 0 0 0 0 127 0" result="hardAlpha"/>
<feOffset dy="4"/>
<feGaussianBlur stdDeviation="2"/>
<feComposite in2="hardAlpha" operator="out"/>
<feColorMatrix type="matrix" values="0 0 0 0 0 0 0 0 0 0 0 0 0 0 0 0 0 0 0.25 0"/>
<feBlend mode="normal" in2="BackgroundImageFix" result="effect1_dropShadow_2_10956"/>
<feBlend mode="normal" in="SourceGraphic" in2="effect1_dropShadow_2_10956" result="shape"/>
</filter>
<filter id="filter2_d_2_10956" x="178.097" y="327.49" width="43.4365" height="21.626" filterUnits="userSpaceOnUse" color-interpolation-filters="sRGB">
<feFlood flood-opacity="0" result="BackgroundImageFix"/>
<feColorMatrix in="SourceAlpha" type="matrix" values="0 0 0 0 0 0 0 0 0 0 0 0 0 0 0 0 0 0 127 0" result="hardAlpha"/>
<feOffset dy="4"/>
<feGaussianBlur stdDeviation="2"/>
<feComposite in2="hardAlpha" operator="out"/>
<feColorMatrix type="matrix" values="0 0 0 0 0 0 0 0 0 0 0 0 0 0 0 0 0 0 0.25 0"/>
<feBlend mode="normal" in2="BackgroundImageFix" result="effect1_dropShadow_2_10956"/>
<feBlend mode="normal" in="SourceGraphic" in2="effect1_dropShadow_2_10956" result="shape"/>
</filter>
<filter id="filter3_d_2_10956" x="91.4922" y="309.039" width="43.3662" height="21.698" filterUnits="userSpaceOnUse" color-interpolation-filters="sRGB">
<feFlood flood-opacity="0" result="BackgroundImageFix"/>
<feColorMatrix in="SourceAlpha" type="matrix" values="0 0 0 0 0 0 0 0 0 0 0 0 0 0 0 0 0 0 127 0" result="hardAlpha"/>
<feOffset dy="4"/>
<feGaussianBlur stdDeviation="2"/>
<feComposite in2="hardAlpha" operator="out"/>
<feColorMatrix type="matrix" values="0 0 0 0 0 0 0 0 0 0 0 0 0 0 0 0 0 0 0.25 0"/>
<feBlend mode="normal" in2="BackgroundImageFix" result="effect1_dropShadow_2_10956"/>
<feBlend mode="normal" in="SourceGraphic" in2="effect1_dropShadow_2_10956" result="shape"/>
</filter>
<filter id="filter4_d_2_10956" x="7.85938" y="205.534" width="43.7871" height="21.7161" filterUnits="userSpaceOnUse" color-interpolation-filters="sRGB">
<feFlood flood-opacity="0" result="BackgroundImageFix"/>
<feColorMatrix in="SourceAlpha" type="matrix" values="0 0 0 0 0 0 0 0 0 0 0 0 0 0 0 0 0 0 127 0" result="hardAlpha"/>
<feOffset dy="4"/>
<feGaussianBlur stdDeviation="2"/>
<feComposite in2="hardAlpha" operator="out"/>
<feColorMatrix type="matrix" values="0 0 0 0 0 0 0 0 0 0 0 0 0 0 0 0 0 0 0.25 0"/>
<feBlend mode="normal" in2="BackgroundImageFix" result="effect1_dropShadow_2_10956"/>
<feBlend mode="normal" in="SourceGraphic" in2="effect1_dropShadow_2_10956" result="shape"/>
</filter>
<filter id="filter5_d_2_10956" x="65.8604" y="49.957" width="44.9463" height="21.5901" filterUnits="userSpaceOnUse" color-interpolation-filters="sRGB">
<feFlood flood-opacity="0" result="BackgroundImageFix"/>
<feColorMatrix in="SourceAlpha" type="matrix" values="0 0 0 0 0 0 0 0 0 0 0 0 0 0 0 0 0 0 127 0" result="hardAlpha"/>
<feOffset dy="4"/>
<feGaussianBlur stdDeviation="2"/>
<feComposite in2="hardAlpha" operator="out"/>
<feColorMatrix type="matrix" values="0 0 0 0 0 0 0 0 0 0 0 0 0 0 0 0 0 0 0.25 0"/>
<feBlend mode="normal" in2="BackgroundImageFix" result="effect1_dropShadow_2_10956"/>
<feBlend mode="normal" in="SourceGraphic" in2="effect1_dropShadow_2_10956" result="shape"/>
</filter>
</defs>
</svg>
